ExpletusSans-Italic.ufo
<glyph name="exclam" format="2">
  <advance width="702"/>
  <unicode hex="0021"/>
  <outline>
    <contour>
      <point x="208" y="370" type="line"/>
      <point x="344" y="370" type="line"/>
      <point x="506" y="1454" type="line" name="hr00"/>
      <point x="318" y="1454" type="line"/>
    </contour>
    <contour>
      <point x="226" y="-30" type="curve" smooth="yes"/>
      <point x="296" y="-30"/>
      <point x="354" y="20"/>
      <point x="362" y="88" type="curve" smooth="yes"/>
      <point x="370" y="158"/>
      <point x="324" y="210"/>
      <point x="254" y="210" type="curve" smooth="yes"/>
      <point x="186" y="210"/>
      <point x="130" y="158"/>
      <point x="122" y="88" type="curve" smooth="yes"/>
      <point x="114" y="20"/>
      <point x="158" y="-30"/>
    </contour>
  </outline>
</glyph>
<glyph name="dollar" format="2">
  <advance width="1028"/>
  <unicode hex="0024"/>
  <outline>
    <contour>
      <point x="426" y="-214" type="line"/>
      <point x="570" y="-214" type="line"/>
      <point x="596" y="-12" type="line"/>
      <point x="826" y="28"/>
      <point x="970" y="192"/>
      <point x="990" y="352" type="curve" smooth="yes"/>
      <point x="1044" y="790"/>
      <point x="400" y="784"/>
      <point x="436" y="1088" type="curve" smooth="yes"/>
      <point x="448" y="1188"/>
      <point x="542" y="1276"/>
      <point x="676" y="1276" type="curve" smooth="yes"/>
      <point x="752" y="1276"/>
      <point x="830" y="1266"/>
      <point x="942" y="1232" type="curve"/>
      <point x="1014" y="1362" type="line"/>
      <point x="918" y="1392"/>
      <point x="846" y="1410"/>
      <point x="772" y="1418" type="curve"/>
      <point x="796" y="1620" type="line"/>
      <point x="652" y="1620" type="line"/>
      <point x="628" y="1422" type="line"/>
      <point x="424" y="1402"/>
      <point x="268" y="1260"/>
      <point x="246" y="1088" type="curve" smooth="yes"/>
      <point x="194" y="652"/>
      <point x="836" y="688"/>
      <point x="794" y="356" type="curve" smooth="yes"/>
      <point x="780" y="234"/>
      <point x="656" y="124"/>
      <point x="484" y="124" type="curve" smooth="yes"/>
      <point x="388" y="124"/>
      <point x="282" y="146"/>
      <point x="166" y="202" type="curve"/>
      <point x="98" y="72" type="line"/>
      <point x="214" y="10"/>
      <point x="342" y="-16"/>
      <point x="450" y="-22" type="curve" name="hr01"/>
    </contour>
  </outline>
</glyph>
<glyph name="percent" format="2">
  <advance width="1628"/>
  <unicode hex="0025"/>
  <outline>
    <contour>
      <point x="316" y="0" type="line"/>
      <point x="456" y="0" type="line"/>
      <point x="1504" y="1404" type="line"/>
      <point x="1364" y="1404" type="line"/>
    </contour>
    <contour>
      <point x="454" y="618" type="curve" smooth="yes"/>
      <point x="640" y="618"/>
      <point x="794" y="768"/>
      <point x="824" y="1026" type="curve"/>
      <point x="856" y="1284"/>
      <point x="742" y="1434"/>
      <point x="556" y="1434" type="curve"/>
      <point x="366" y="1434"/>
      <point x="214" y="1284"/>
      <point x="182" y="1026" type="curve"/>
      <point x="152" y="766"/>
      <point x="264" y="618"/>
    </contour>
    <contour>
      <point x="470" y="738" type="curve" smooth="yes"/>
      <point x="376" y="738"/>
      <point x="328" y="830"/>
      <point x="352" y="1026" type="curve"/>
      <point x="376" y="1220"/>
      <point x="446" y="1314"/>
      <point x="540" y="1314" type="curve"/>
      <point x="634" y="1314"/>
      <point x="678" y="1220"/>
      <point x="654" y="1026" type="curve"/>
      <point x="630" y="830"/>
      <point x="564" y="738"/>
    </contour>
    <contour>
      <point x="1264" y="-26" type="curve" smooth="yes" name="hr01"/>
      <point x="1452" y="-26"/>
      <point x="1604" y="124"/>
      <point x="1636" y="382" type="curve" smooth="yes"/>
      <point x="1668" y="638"/>
      <point x="1552" y="788"/>
      <point x="1364" y="788" type="curve" smooth="yes"/>
      <point x="1176" y="788"/>
      <point x="1026" y="638"/>
      <point x="994" y="382" type="curve" smooth="yes"/>
      <point x="962" y="122"/>
      <point x="1076" y="-26"/>
    </contour>
    <contour>
      <point x="1278" y="92" type="curve" smooth="yes"/>
      <point x="1186" y="92"/>
      <point x="1140" y="186"/>
      <point x="1164" y="382" type="curve" smooth="yes"/>
      <point x="1188" y="574"/>
      <point x="1258" y="670"/>
      <point x="1350" y="670" type="curve" smooth="yes"/>
      <point x="1446" y="670"/>
      <point x="1490" y="574"/>
      <point x="1466" y="382" type="curve" smooth="yes"/>
      <point x="1442" y="186"/>
      <point x="1374" y="92"/>
    </contour>
  </outline>
</glyph>
<glyph name="parenleft" format="2">
  <advance width="806"/>
  <unicode hex="0028"/>
  <outline>
    <contour>
      <point x="684" y="-352" type="curve"/>
      <point x="774" y="-252" type="line"/>
      <point x="532" y="-42"/>
      <point x="542" y="148"/>
      <point x="596" y="592" type="curve" name="hr00"/>
      <point x="650" y="1034"/>
      <point x="688" y="1224"/>
      <point x="982" y="1434" type="curve"/>
      <point x="916" y="1534" type="line"/>
      <point x="582" y="1326"/>
      <point x="494" y="1090"/>
      <point x="434" y="592" type="curve"/>
      <point x="372" y="92"/>
      <point x="402" y="-144"/>
    </contour>
  </outline>
</glyph>
<glyph name="parenright" format="2">
  <advance width="802"/>
  <unicode hex="0029"/>
  <outline>
    <contour>
      <point x="38" y="-352" type="line"/>
      <point x="372" y="-144"/>
      <point x="458" y="92"/>
      <point x="520" y="592" type="curve"/>
      <point x="580" y="1090"/>
      <point x="552" y="1326"/>
      <point x="270" y="1534" type="curve"/>
      <point x="180" y="1434" type="line"/>
      <point x="422" y="1224"/>
      <point x="412" y="1034"/>
      <point x="358" y="592" type="curve" name="hr00"/>
      <point x="304" y="148"/>
      <point x="266" y="-42"/>
      <point x="-26" y="-252" type="curve"/>
    </contour>
  </outline>
</glyph>
<glyph name="asterisk" format="2">
  <advance width="1060"/>
  <unicode hex="002A"/>
  <outline>
    <contour>
      <point x="454" y="708" type="line"/>
      <point x="624" y="1004" type="line"/>
      <point x="720" y="708" type="line"/>
      <point x="862" y="784" type="line"/>
      <point x="704" y="1046" type="line"/>
      <point x="710" y="1046"/>
      <point x="734" y="1046"/>
      <point x="1024" y="1016" type="curve"/>
      <point x="1042" y="1168" type="line"/>
      <point x="716" y="1136" type="line"/>
      <point x="718" y="1138"/>
      <point x="746" y="1178"/>
      <point x="940" y="1398" type="curve"/>
      <point x="818" y="1474" type="line" name="hr00"/>
      <point x="646" y="1180" type="line"/>
      <point x="544" y="1474" type="line"/>
      <point x="402" y="1398" type="line"/>
      <point x="564" y="1138" type="line"/>
      <point x="244" y="1168" type="line"/>
      <point x="226" y="1016" type="line"/>
      <point x="552" y="1048" type="line"/>
      <point x="332" y="784" type="line"/>
    </contour>
  </outline>
</glyph>
<glyph name="hyphen" format="2">
  <advance width="750"/>
  <unicode hex="002D"/>
  <outline>
    <contour>
      <point x="156" y="546" type="line" name="hr00"/>
      <point x="760" y="546" type="line"/>
      <point x="776" y="674" type="line"/>
      <point x="172" y="674" type="line"/>
    </contour>
  </outline>
</glyph>
<glyph name="period" format="2">
  <advance width="612"/>
  <unicode hex="002E"/>
  <outline>
    <contour>
      <point x="300" y="-30" type="curve" smooth="yes"/>
      <point x="370" y="-30"/>
      <point x="428" y="20"/>
      <point x="436" y="88" type="curve" smooth="yes"/>
      <point x="444" y="158"/>
      <point x="398" y="210"/>
      <point x="328" y="210" type="curve" smooth="yes"/>
      <point x="260" y="210"/>
      <point x="204" y="158"/>
      <point x="196" y="88" type="curve" smooth="yes" name="hr00"/>
      <point x="188" y="20"/>
      <point x="232" y="-30"/>
    </contour>
  </outline>
</glyph>
<glyph name="zero" format="2">
  <advance width="1322"/>
  <unicode hex="0030"/>
  <outline>
    <contour>
      <point x="654" y="-32" type="curve" smooth="yes"/>
      <point x="948" y="-32"/>
      <point x="1224" y="214"/>
      <point x="1282" y="698" type="curve" smooth="yes"/>
      <point x="1338" y="1144"/>
      <point x="1160" y="1432"/>
      <point x="830" y="1432" type="curve" smooth="yes"/>
      <point x="500" y="1432"/>
      <point x="256" y="1142"/>
      <point x="200" y="698" type="curve" smooth="yes"/>
      <point x="147" y="247"/>
      <point x="329" y="-32"/>
    </contour>
    <contour>
      <point x="670" y="112" type="curve" smooth="yes"/>
      <point x="454" y="112"/>
      <point x="352" y="330"/>
      <point x="396" y="698" type="curve" smooth="yes"/>
      <point x="442" y="1066"/>
      <point x="600" y="1288"/>
      <point x="816" y="1288" type="curve" smooth="yes"/>
      <point x="1030" y="1288"/>
      <point x="1132" y="1066"/>
      <point x="1086" y="698" type="curve" smooth="yes"/>
      <point x="1042" y="330"/>
      <point x="884" y="112"/>
    </contour>
  </outline>
</glyph>
<glyph name="one" format="2">
  <advance width="638"/>
  <unicode hex="0031"/>
  <outline>
    <contour>
      <point x="288" y="0" type="line" name="hr00"/>
      <point x="480" y="0" type="line"/>
      <point x="652" y="1402" type="line"/>
      <point x="578" y="1402" type="line"/>
      <point x="134" y="1178" type="line"/>
      <point x="188" y="1052" type="line"/>
      <point x="432" y="1174" type="line"/>
    </contour>
  </outline>
</glyph>
<glyph name="two" format="2">
  <advance width="1028"/>
  <unicode hex="0032"/>
  <outline>
    <contour>
      <point x="114" y="0" type="line"/>
      <point x="964" y="0" type="line"/>
      <point x="982" y="160" type="line"/>
      <point x="398" y="160" type="line"/>
      <point x="354" y="152" type="line"/>
      <point x="388" y="186" type="line"/>
      <point x="582" y="446"/>
      <point x="1030" y="740"/>
      <point x="1070" y="1060" type="curve" smooth="yes" name="hr00"/>
      <point x="1098" y="1290"/>
      <point x="922" y="1420"/>
      <point x="682" y="1420" type="curve" smooth="yes"/>
      <point x="574" y="1420"/>
      <point x="464" y="1404"/>
      <point x="334" y="1338" type="curve"/>
      <point x="366" y="1204" type="line"/>
      <point x="482" y="1262"/>
      <point x="568" y="1276"/>
      <point x="642" y="1276" type="curve"/>
      <point x="782" y="1276"/>
      <point x="890" y="1188"/>
      <point x="872" y="1038" type="curve"/>
      <point x="840" y="774"/>
      <point x="440" y="508"/>
      <point x="122" y="76" type="curve"/>
    </contour>
  </outline>
</glyph>
<glyph name="three" format="2">
  <advance width="1056"/>
  <unicode hex="0033"/>
  <outline>
    <contour>
      <point x="398" y="-22" type="curve" smooth="yes"/>
      <point x="686" y="-22"/>
      <point x="918" y="184"/>
      <point x="946" y="414" type="curve" smooth="yes"/>
      <point x="968" y="596"/>
      <point x="858" y="722"/>
      <point x="736" y="768" type="curve"/>
      <point x="692" y="778" type="line"/>
      <point x="744" y="794" type="line"/>
      <point x="878" y="862"/>
      <point x="970" y="980"/>
      <point x="986" y="1108" type="curve" smooth="yes" name="hr00"/>
      <point x="1008" y="1290"/>
      <point x="866" y="1424"/>
      <point x="636" y="1424" type="curve" smooth="yes"/>
      <point x="528" y="1424"/>
      <point x="408" y="1406"/>
      <point x="278" y="1340" type="curve"/>
      <point x="312" y="1206" type="line"/>
      <point x="426" y="1264"/>
      <point x="522" y="1278"/>
      <point x="598" y="1278" type="curve" smooth="yes"/>
      <point x="720" y="1278"/>
      <point x="800" y="1198"/>
      <point x="786" y="1076" type="curve"/>
      <point x="768" y="932"/>
      <point x="624" y="878"/>
      <point x="498" y="826" type="curve" smooth="yes"/>
      <point x="390" y="784" type="line"/>
      <point x="394" y="676" type="line"/>
      <point x="620" y="676"/>
      <point x="774" y="618"/>
      <point x="750" y="418" type="curve" smooth="yes"/>
      <point x="734" y="292"/>
      <point x="616" y="124"/>
      <point x="414" y="124" type="curve" smooth="yes"/>
      <point x="288" y="124"/>
      <point x="180" y="168"/>
      <point x="130" y="202" type="curve"/>
      <point x="68" y="72" type="line"/>
      <point x="128" y="30"/>
      <point x="246" y="-22"/>
    </contour>
  </outline>
</glyph>
<glyph name="five" format="2">
  <advance width="1070"/>
  <unicode hex="0035"/>
  <outline>
    <contour>
      <point x="430" y="-22" type="curve" smooth="yes"/>
      <point x="750" y="-22"/>
      <point x="952" y="184"/>
      <point x="980" y="414" type="curve" smooth="yes"/>
      <point x="1006" y="628"/>
      <point x="882" y="838"/>
      <point x="552" y="838" type="curve"/>
      <point x="516" y="838"/>
      <point x="482" y="836"/>
      <point x="450" y="832" type="curve"/>
      <point x="408" y="826" type="line" name="hr00"/>
      <point x="416" y="866" type="line"/>
      <point x="492" y="1244" type="line"/>
      <point x="1022" y="1244" type="line"/>
      <point x="1042" y="1402" type="line"/>
      <point x="376" y="1402" type="line"/>
      <point x="232" y="656" type="line"/>
      <point x="312" y="680"/>
      <point x="424" y="696"/>
      <point x="492" y="696" type="curve"/>
      <point x="682" y="696"/>
      <point x="808" y="610"/>
      <point x="784" y="418" type="curve" smooth="yes"/>
      <point x="768" y="292"/>
      <point x="678" y="124"/>
      <point x="446" y="124" type="curve" smooth="yes"/>
      <point x="370" y="124"/>
      <point x="258" y="144"/>
      <point x="160" y="206" type="curve"/>
      <point x="98" y="76" type="line"/>
      <point x="176" y="16"/>
      <point x="328" y="-22"/>
    </contour>
  </outline>
</glyph>
<glyph name="six" format="2">
  <advance width="1308"/>
  <unicode hex="0036"/>
  <outline>
    <contour>
      <point x="674" y="-28" type="curve" smooth="yes"/>
      <point x="948" y="-28"/>
      <point x="1156" y="202"/>
      <point x="1184" y="432" type="curve" smooth="yes"/>
      <point x="1218" y="706"/>
      <point x="1062" y="854"/>
      <point x="822" y="854" type="curve" smooth="yes"/>
      <point x="730" y="854"/>
      <point x="664" y="832"/>
      <point x="518" y="760" type="curve"/>
      <point x="550" y="726"/>
      <point x="630" y="676"/>
      <point x="732" y="700" type="curve"/>
      <point x="766" y="708"/>
      <point x="784" y="710"/>
      <point x="804" y="710" type="curve" smooth="yes"/>
      <point x="924" y="710"/>
      <point x="1010" y="614"/>
      <point x="988" y="432" type="curve" smooth="yes"/>
      <point x="966" y="248"/>
      <point x="844" y="116"/>
      <point x="688" y="116" type="curve" smooth="yes"/>
      <point x="422" y="116"/>
      <point x="402" y="438"/>
      <point x="430" y="656" type="curve" smooth="yes"/>
      <point x="474" y="1014"/>
      <point x="698" y="1268"/>
      <point x="980" y="1268" type="curve" name="hr00"/>
      <point x="1030" y="1268"/>
      <point x="1088" y="1260"/>
      <point x="1142" y="1234" type="curve"/>
      <point x="1202" y="1366" type="line"/>
      <point x="1134" y="1398"/>
      <point x="1064" y="1412"/>
      <point x="998" y="1412" type="curve"/>
      <point x="564" y="1412"/>
      <point x="278" y="1018"/>
      <point x="234" y="652" type="curve" smooth="yes"/>
      <point x="192" y="324"/>
      <point x="272" y="-28"/>
    </contour>
  </outline>
</glyph>
<glyph name="seven" format="2">
  <advance width="1002"/>
  <unicode hex="0037"/>
  <outline>
    <contour>
      <point x="260" y="0" type="curve" name="hr00"/>
      <point x="454" y="0" type="line"/>
      <point x="590" y="642"/>
      <point x="830" y="970"/>
      <point x="1082" y="1250" type="curve"/>
      <point x="1102" y="1402" type="line"/>
      <point x="248" y="1402" type="line"/>
      <point x="226" y="1236" type="line"/>
      <point x="854" y="1236" type="line"/>
      <point x="880" y="1236" type="line"/>
      <point x="862" y="1214" type="line"/>
      <point x="568" y="848"/>
      <point x="376" y="456"/>
    </contour>
  </outline>
</glyph>
<glyph name="eight" format="2">
  <advance width="1228"/>
  <unicode hex="0038"/>
  <outline>
    <contour>
      <point x="620" y="-28" type="curve" smooth="yes"/>
      <point x="872" y="-28"/>
      <point x="1106" y="110"/>
      <point x="1136" y="356" type="curve" smooth="yes"/>
      <point x="1158" y="528"/>
      <point x="1086" y="628"/>
      <point x="984" y="696" type="curve"/>
      <point x="956" y="714" type="line"/>
      <point x="978" y="736" type="line"/>
      <point x="1080" y="838"/>
      <point x="1164" y="940"/>
      <point x="1178" y="1062" type="curve" smooth="yes"/>
      <point x="1206" y="1290"/>
      <point x="1030" y="1424"/>
      <point x="804" y="1424" type="curve" smooth="yes"/>
      <point x="590" y="1424"/>
      <point x="368" y="1290"/>
      <point x="340" y="1062" type="curve" smooth="yes"/>
      <point x="282" y="590"/>
      <point x="1000" y="704"/>
      <point x="956" y="356" type="curve" smooth="yes"/>
      <point x="940" y="216"/>
      <point x="810" y="116"/>
      <point x="638" y="116" type="curve" smooth="yes"/>
      <point x="474" y="116"/>
      <point x="360" y="214"/>
      <point x="380" y="380" type="curve" smooth="yes"/>
      <point x="384" y="410"/>
      <point x="398" y="442"/>
      <point x="420" y="478" type="curve" smooth="yes"/>
      <point x="466" y="548"/>
      <point x="450" y="630"/>
      <point x="414" y="694" type="curve"/>
      <point x="256" y="544"/>
      <point x="216" y="446"/>
      <point x="204" y="356" type="curve" smooth="yes"/>
      <point x="174" y="110"/>
      <point x="364" y="-28"/>
    </contour>
    <contour>
      <point x="826" y="780" type="curve"/>
      <point x="662" y="854"/>
      <point x="500" y="906"/>
      <point x="520" y="1062" type="curve" smooth="yes" name="hr00"/>
      <point x="536" y="1198"/>
      <point x="666" y="1278"/>
      <point x="786" y="1278" type="curve" smooth="yes"/>
      <point x="904" y="1278"/>
      <point x="1018" y="1200"/>
      <point x="998" y="1038" type="curve"/>
      <point x="986" y="938"/>
      <point x="920" y="862"/>
    </contour>
  </outline>
</glyph>
<glyph name="nine" format="2">
  <advance width="1308"/>
  <unicode hex="0039"/>
  <outline>
    <contour>
      <point x="454" y="-20" type="curve"/>
      <point x="888" y="-20"/>
      <point x="1178" y="376"/>
      <point x="1222" y="744" type="curve" smooth="yes"/>
      <point x="1262" y="1068"/>
      <point x="1182" y="1420"/>
      <point x="782" y="1420" type="curve" smooth="yes"/>
      <point x="508" y="1420"/>
      <point x="298" y="1194"/>
      <point x="270" y="962" type="curve" smooth="yes"/>
      <point x="236" y="688"/>
      <point x="394" y="542"/>
      <point x="634" y="542" type="curve" smooth="yes"/>
      <point x="724" y="542"/>
      <point x="790" y="560"/>
      <point x="934" y="632" type="curve"/>
      <point x="904" y="668"/>
      <point x="828" y="720"/>
      <point x="722" y="692" type="curve"/>
      <point x="690" y="686"/>
      <point x="668" y="684"/>
      <point x="650" y="684" type="curve" smooth="yes"/>
      <point x="528" y="684"/>
      <point x="446" y="782"/>
      <point x="468" y="962" type="curve" smooth="yes"/>
      <point x="490" y="1144"/>
      <point x="610" y="1276"/>
      <point x="770" y="1276" type="curve" smooth="yes"/>
      <point x="1034" y="1276"/>
      <point x="1052" y="956"/>
      <point x="1026" y="740" type="curve" smooth="yes"/>
      <point x="982" y="380"/>
      <point x="758" y="126"/>
      <point x="472" y="126" type="curve" smooth="yes" name="hr00"/>
      <point x="424" y="126"/>
      <point x="368" y="136"/>
      <point x="312" y="162" type="curve"/>
      <point x="250" y="30" type="line"/>
      <point x="318" y="-4"/>
      <point x="388" y="-20"/>
    </contour>
  </outline>
</glyph>
<glyph name="less" format="2">
  <advance width="1226"/>
  <unicode hex="003C"/>
  <outline>
    <contour>
      <point x="1108" y="0" type="line"/>
      <point x="1126" y="162" type="line" name="hr00"/>
      <point x="360" y="540" type="line"/>
      <point x="308" y="552" type="line"/>
      <point x="362" y="566" type="line"/>
      <point x="1222" y="944" type="line"/>
      <point x="1242" y="1104" type="line"/>
      <point x="146" y="602" type="line"/>
      <point x="134" y="502" type="line"/>
    </contour>
  </outline>
</glyph>
<glyph name="greater" format="2">
  <advance width="1226"/>
  <unicode hex="003E"/>
  <outline>
    <contour>
      <point x="74" y="0" type="line"/>
      <point x="1168" y="502" type="line"/>
      <point x="1180" y="602" type="line"/>
      <point x="208" y="1104" type="line"/>
      <point x="188" y="944" type="line"/>
      <point x="956" y="566" type="line"/>
      <point x="1006" y="552" type="line"/>
      <point x="954" y="540" type="line" name="hr00"/>
      <point x="92" y="162" type="line"/>
    </contour>
  </outline>
</glyph>
<glyph name="A" format="2">
  <advance width="1374"/>
  <unicode hex="0041"/>
  <anchor x="680" y="0" name="bottom"/>
  <anchor x="1304" y="0" name="ogonek"/>
  <anchor x="866" y="1454" name="top"/>
  <outline>
    <contour>
      <point x="70" y="0" type="line"/>
      <point x="260" y="0" type="line"/>
      <point x="422" y="348" type="line"/>
      <point x="926" y="348" type="line"/>
      <point x="908" y="424"/>
      <point x="870" y="492"/>
      <point x="774" y="492" type="curve" smooth="yes"/>
      <point x="504" y="492" type="line"/>
      <point x="478" y="488" type="line"/>
      <point x="506" y="530" type="line"/>
      <point x="808" y="1172" type="line"/>
      <point x="830" y="1230" type="line"/>
      <point x="836" y="1172" type="line"/>
      <point x="1100" y="0" type="line"/>
      <point x="1304" y="0" type="line"/>
      <point x="958" y="1454" type="line" name="hr00"/>
      <point x="772" y="1454" type="line"/>
    </contour>
  </outline>
</glyph>
<glyph name="B" format="2">
  <advance width="1286"/>
  <unicode hex="0042"/>
  <anchor x="602" y="0" name="bottom"/>
  <anchor x="782" y="1454" name="top"/>
  <outline>
    <contour>
      <point x="720" y="-24" type="curve" smooth="yes" name="hr02"/>
      <point x="1010" y="-24"/>
      <point x="1210" y="204"/>
      <point x="1236" y="410" type="curve" smooth="yes"/>
      <point x="1254" y="570"/>
      <point x="1182" y="690"/>
      <point x="1040" y="762" type="curve"/>
      <point x="986" y="776" type="line"/>
      <point x="1048" y="804" type="line"/>
      <point x="1154" y="866"/>
      <point x="1222" y="998"/>
      <point x="1234" y="1094" type="curve"/>
      <point x="1260" y="1310"/>
      <point x="1114" y="1480"/>
      <point x="774" y="1480" type="curve" smooth="yes"/>
      <point x="630" y="1480"/>
      <point x="504" y="1466"/>
      <point x="350" y="1436" type="curve"/>
      <point x="174" y="0" type="line"/>
      <point x="364" y="0" type="line" name="hr01"/>
      <point x="448" y="692" type="line"/>
      <point x="678" y="692" type="line" smooth="yes"/>
      <point x="894" y="692"/>
      <point x="1056" y="602"/>
      <point x="1032" y="402" type="curve" smooth="yes"/>
      <point x="1014" y="246"/>
      <point x="878" y="122"/>
      <point x="738" y="122" type="curve" smooth="yes"/>
      <point x="702" y="122"/>
      <point x="680" y="124"/>
      <point x="648" y="128" type="curve"/>
      <point x="560" y="144"/>
      <point x="494" y="82"/>
      <point x="444" y="12" type="curve"/>
      <point x="560" y="-16"/>
      <point x="644" y="-24"/>
    </contour>
    <contour>
      <point x="464" y="830" type="line"/>
      <point x="526" y="1320" type="line"/>
      <point x="598" y="1328"/>
      <point x="684" y="1332"/>
      <point x="756" y="1332" type="curve" smooth="yes"/>
      <point x="958" y="1332"/>
      <point x="1052" y="1230"/>
      <point x="1036" y="1094" type="curve" smooth="yes"/>
      <point x="1018" y="946"/>
      <point x="894" y="830"/>
      <point x="694" y="830" type="curve"/>
    </contour>
  </outline>
</glyph>
<glyph name="D" format="2">
  <advance width="1426"/>
  <unicode hex="0044"/>
  <anchor x="674" y="0" name="bottom"/>
  <anchor x="504" y="712" name="center"/>
  <anchor x="894" y="1454" name="top"/>
  <outline>
    <contour>
      <point x="724" y="-24" type="curve"/>
      <point x="1080" y="-24"/>
      <point x="1422" y="294"/>
      <point x="1474" y="730" type="curve" smooth="yes"/>
      <point x="1532" y="1198"/>
      <point x="1280" y="1480"/>
      <point x="772" y="1480" type="curve" smooth="yes"/>
      <point x="656" y="1480"/>
      <point x="482" y="1462"/>
      <point x="352" y="1432" type="curve"/>
      <point x="178" y="0" type="line"/>
      <point x="368" y="0" type="line" name="hr01"/>
      <point x="530" y="1320" type="line"/>
      <point x="594" y="1328"/>
      <point x="674" y="1334"/>
      <point x="754" y="1334" type="curve" smooth="yes"/>
      <point x="1148" y="1334"/>
      <point x="1318" y="1116"/>
      <point x="1270" y="730" type="curve" smooth="yes"/>
      <point x="1230" y="396"/>
      <point x="996" y="120"/>
      <point x="740" y="120" type="curve"/>
      <point x="708" y="120"/>
      <point x="692" y="120"/>
      <point x="650" y="124" type="curve" smooth="yes"/>
      <point x="562" y="132"/>
      <point x="494" y="80"/>
      <point x="448" y="10" type="curve"/>
      <point x="560" y="-18"/>
      <point x="634" y="-24"/>
    </contour>
  </outline>
</glyph>
<glyph name="I" format="2">
  <advance width="540"/>
  <unicode hex="0049"/>
  <anchor x="270" y="0" name="bottom"/>
  <anchor x="362" y="0" name="ogonek"/>
  <anchor x="448" y="1454" name="top"/>
  <anchor x="156" y="1454" name="topleft"/>
  <outline>
    <contour>
      <point x="178" y="0" type="line"/>
      <point x="362" y="0" type="line" name="hr00"/>
      <point x="540" y="1454" type="line"/>
      <point x="356" y="1454" type="line"/>
    </contour>
  </outline>
</glyph>
<glyph name="K" format="2">
  <advance width="1322"/>
  <unicode hex="004B"/>
  <anchor x="682" y="0" name="bottom"/>
  <anchor x="848" y="1454" name="top"/>
  <outline>
    <contour>
      <point x="1052" y="0" type="line"/>
      <point x="1282" y="0" type="line"/>
      <point x="870" y="866" type="line" name="hr00"/>
      <point x="1394" y="1454" type="line"/>
      <point x="1178" y="1454" type="line"/>
      <point x="634" y="824" type="line" smooth="yes"/>
      <point x="540" y="714"/>
      <point x="506" y="566"/>
      <point x="532" y="486" type="curve"/>
      <point x="716" y="694" type="line"/>
      <point x="738" y="730" type="line"/>
      <point x="748" y="694" type="line"/>
    </contour>
    <contour>
      <point x="178" y="0" type="line"/>
      <point x="368" y="0" type="line"/>
      <point x="546" y="1454" type="line"/>
      <point x="356" y="1454" type="line"/>
    </contour>
  </outline>
</glyph>
<glyph name="M" format="2">
  <advance width="1898"/>
  <unicode hex="004D"/>
  <anchor x="948" y="0" name="bottom"/>
  <anchor x="1120" y="1454" name="top"/>
  <outline>
    <contour>
      <point x="138" y="0" type="line"/>
      <point x="318" y="0" type="line"/>
      <point x="572" y="1166" type="line"/>
      <point x="588" y="1250" type="line"/>
      <point x="604" y="1166" type="line"/>
      <point x="862" y="20" type="line"/>
      <point x="1040" y="20" type="line"/>
      <point x="1576" y="1164" type="line"/>
      <point x="1610" y="1250" type="line"/>
      <point x="1606" y="1164" type="line"/>
      <point x="1578" y="0" type="line"/>
      <point x="1760" y="0" type="line"/>
      <point x="1778" y="1454" type="line"/>
      <point x="1532" y="1454" type="line"/>
      <point x="998" y="286" type="line"/>
      <point x="976" y="224" type="line"/>
      <point x="970" y="286" type="line"/>
      <point x="724" y="1454" type="line"/>
      <point x="478" y="1454" type="line" name="hr00"/>
    </contour>
  </outline>
</glyph>
<glyph name="O" format="2">
  <advance width="1582"/>
  <unicode hex="004F"/>
  <anchor x="764" y="0" name="bottom"/>
  <anchor x="852" y="728" name="center"/>
  <anchor x="1362" y="0" name="ogonek"/>
  <anchor x="942" y="1454" name="top"/>
  <anchor x="236" y="1454" name="topleft"/>
  <anchor x="1658" y="1454" name="topright"/>
  <outline>
    <contour>
      <point x="760" y="-28" type="curve" smooth="yes"/>
      <point x="1122" y="-28"/>
      <point x="1470" y="266"/>
      <point x="1526" y="728" type="curve"/>
      <point x="1576" y="1140"/>
      <point x="1380" y="1484"/>
      <point x="946" y="1484" type="curve"/>
      <point x="634" y="1484"/>
      <point x="242" y="1238"/>
      <point x="178" y="728" type="curve" name="hr00"/>
      <point x="120" y="256"/>
      <point x="386" y="-28"/>
    </contour>
    <contour>
      <point x="778" y="116" type="curve"/>
      <point x="508" y="116"/>
      <point x="338" y="366"/>
      <point x="382" y="728" type="curve"/>
      <point x="428" y="1104"/>
      <point x="670" y="1338"/>
      <point x="928" y="1338" type="curve" smooth="yes"/>
      <point x="1186" y="1338"/>
      <point x="1368" y="1104"/>
      <point x="1322" y="728" type="curve"/>
      <point x="1280" y="386"/>
      <point x="1060" y="116"/>
    </contour>
  </outline>
</glyph>
<glyph name="P" format="2">
  <advance width="1218"/>
  <unicode hex="0050"/>
  <anchor x="274" y="0" name="bottom"/>
  <anchor x="774" y="1454" name="top"/>
  <outline>
    <contour>
      <point x="178" y="0" type="line"/>
      <point x="368" y="0" type="line"/>
      <point x="530" y="1322" type="line"/>
      <point x="602" y="1330"/>
      <point x="676" y="1334"/>
      <point x="750" y="1334" type="curve" smooth="yes"/>
      <point x="930" y="1334"/>
      <point x="1062" y="1208"/>
      <point x="1040" y="1040" type="curve"/>
      <point x="1020" y="870"/>
      <point x="852" y="748"/>
      <point x="714" y="748" type="curve" smooth="yes"/>
      <point x="630" y="748"/>
      <point x="562" y="694"/>
      <point x="524" y="626" type="curve"/>
      <point x="596" y="606"/>
      <point x="664" y="604"/>
      <point x="722" y="610" type="curve" smooth="yes"/>
      <point x="964" y="630"/>
      <point x="1212" y="784"/>
      <point x="1242" y="1040" type="curve" smooth="yes" name="hr00"/>
      <point x="1272" y="1282"/>
      <point x="1090" y="1480"/>
      <point x="768" y="1480" type="curve"/>
      <point x="622" y="1480"/>
      <point x="508" y="1470"/>
      <point x="354" y="1440" type="curve"/>
    </contour>
  </outline>
</glyph>
<glyph name="R" format="2">
  <advance width="1296"/>
  <unicode hex="0052"/>
  <anchor x="644" y="0" name="bottom"/>
  <anchor x="794" y="1454" name="top"/>
  <outline>
    <contour>
      <point x="178" y="0" type="line"/>
      <point x="368" y="0" type="line"/>
      <point x="528" y="1318" type="line"/>
      <point x="628" y="1336"/>
      <point x="678" y="1336"/>
      <point x="752" y="1336" type="curve" smooth="yes"/>
      <point x="932" y="1336"/>
      <point x="1062" y="1212"/>
      <point x="1042" y="1054" type="curve" smooth="yes"/>
      <point x="1022" y="890"/>
      <point x="856" y="772"/>
      <point x="718" y="768" type="curve" smooth="yes"/>
      <point x="634" y="766"/>
      <point x="564" y="714"/>
      <point x="526" y="646" type="curve"/>
      <point x="580" y="632"/>
      <point x="718" y="626"/>
      <point x="742" y="632" type="curve"/>
      <point x="942" y="552"/>
      <point x="894" y="230"/>
      <point x="972" y="0" type="curve"/>
      <point x="1172" y="0" type="line"/>
      <point x="1082" y="270"/>
      <point x="1130" y="532"/>
      <point x="950" y="664" type="curve"/>
      <point x="912" y="680" type="line"/>
      <point x="962" y="696" type="line"/>
      <point x="1110" y="766"/>
      <point x="1224" y="890"/>
      <point x="1244" y="1052" type="curve" smooth="yes" name="hr00"/>
      <point x="1272" y="1286"/>
      <point x="1090" y="1482"/>
      <point x="768" y="1482" type="curve" smooth="yes"/>
      <point x="622" y="1482"/>
      <point x="508" y="1466"/>
      <point x="354" y="1436" type="curve"/>
    </contour>
  </outline>
</glyph>
<glyph name="W" format="2">
  <advance width="1944"/>
  <unicode hex="0057"/>
  <anchor x="978" y="0" name="bottom"/>
  <anchor x="1158" y="1454" name="top"/>
  <outline>
    <contour>
      <point x="432" y="0" type="line"/>
      <point x="664" y="0" type="line"/>
      <point x="1098" y="1136" type="line"/>
      <point x="1124" y="1216" type="line"/>
      <point x="1130" y="1132" type="line"/>
      <point x="1290" y="0" type="line"/>
      <point x="1514" y="0" type="line"/>
      <point x="2082" y="1454" type="line"/>
      <point x="1894" y="1454" type="line"/>
      <point x="1454" y="268" type="line"/>
      <point x="1424" y="174" type="line"/>
      <point x="1416" y="272" type="line"/>
      <point x="1258" y="1434" type="line" name="hr00"/>
      <point x="1054" y="1434" type="line"/>
      <point x="600" y="274" type="line"/>
      <point x="566" y="176" type="line"/>
      <point x="562" y="274" type="line"/>
      <point x="412" y="1454" type="line"/>
      <point x="220" y="1454" type="line"/>
    </contour>
  </outline>
</glyph>
<glyph name="X" format="2">
  <advance width="1252"/>
  <unicode hex="0058"/>
  <anchor x="620" y="0" name="bottom"/>
  <anchor x="808" y="1454" name="top"/>
  <outline>
    <contour>
      <point x="964" y="0" type="line"/>
      <point x="1180" y="0" type="line"/>
      <point x="822" y="754" type="line"/>
      <point x="1332" y="1454" type="line"/>
      <point x="1120" y="1454" type="line"/>
      <point x="756" y="924" type="line"/>
      <point x="734" y="874" type="line"/>
      <point x="722" y="924" type="line"/>
      <point x="494" y="1454" type="line"/>
      <point x="272" y="1454" type="line" name="hr00"/>
    </contour>
    <contour>
      <point x="68" y="0" type="line"/>
      <point x="274" y="0" type="line"/>
      <point x="556" y="420" type="line"/>
      <point x="614" y="500"/>
      <point x="586" y="598"/>
      <point x="548" y="660" type="curve"/>
    </contour>
  </outline>
</glyph>
<glyph name="Z" format="2">
  <advance width="1196"/>
  <unicode hex="005A"/>
  <anchor x="694" y="0" name="bottom"/>
  <anchor x="898" y="1454" name="top"/>
  <outline>
    <contour>
      <point x="170" y="0" type="line"/>
      <point x="1216" y="0" type="line"/>
      <point x="1232" y="144" type="line"/>
      <point x="452" y="144" type="line"/>
      <point x="408" y="138" type="line"/>
      <point x="442" y="168" type="line"/>
      <point x="1364" y="1378" type="line"/>
      <point x="1374" y="1454" type="line"/>
      <point x="436" y="1454" type="line" name="hr00"/>
      <point x="418" y="1310" type="line"/>
      <point x="1086" y="1310" type="line"/>
      <point x="1134" y="1316" type="line"/>
      <point x="1098" y="1282" type="line"/>
      <point x="178" y="76" type="line"/>
    </contour>
  </outline>
</glyph>
<glyph name="bracketleft" format="2">
  <advance width="894"/>
  <unicode hex="005B"/>
  <outline>
    <contour>
      <point x="240" y="-398" type="line"/>
      <point x="754" y="-398" type="line"/>
      <point x="774" y="-254" type="line"/>
      <point x="430" y="-254" type="line"/>
      <point x="632" y="1398" type="line"/>
      <point x="974" y="1398" type="line"/>
      <point x="992" y="1542" type="line"/>
      <point x="478" y="1542" type="line" name="hr00"/>
    </contour>
  </outline>
</glyph>
<glyph name="bracketright" format="2">
  <advance width="914"/>
  <unicode hex="005D"/>
  <outline>
    <contour>
      <point x="58" y="-398" type="line"/>
      <point x="570" y="-398" type="line" name="hr00"/>
      <point x="808" y="1542" type="line"/>
      <point x="296" y="1542" type="line"/>
      <point x="278" y="1398" type="line"/>
      <point x="620" y="1398" type="line"/>
      <point x="418" y="-254" type="line"/>
      <point x="74" y="-254" type="line"/>
    </contour>
  </outline>
</glyph>
<glyph name="a" format="2">
  <advance width="1130"/>
  <unicode hex="0061"/>
  <anchor x="534" y="0" name="bottom"/>
  <anchor x="1014" y="10" name="ogonek"/>
  <anchor x="726" y="1034" name="top"/>
  <outline>
    <contour>
      <point x="532" y="-10" type="curve" smooth="yes"/>
      <point x="592" y="0"/>
      <point x="668" y="28"/>
      <point x="736" y="76" type="curve"/>
      <point x="692" y="134"/>
      <point x="638" y="150"/>
      <point x="580" y="142" type="curve" smooth="yes"/>
      <point x="396" y="112"/>
      <point x="328" y="286"/>
      <point x="356" y="512" type="curve" smooth="yes"/>
      <point x="388" y="768"/>
      <point x="538" y="910"/>
      <point x="738" y="910" type="curve" smooth="yes"/>
      <point x="798" y="910"/>
      <point x="848" y="904"/>
      <point x="908" y="888" type="curve"/>
      <point x="822" y="194" type="line" smooth="yes"/>
      <point x="810" y="90"/>
      <point x="840" y="24"/>
      <point x="878" y="0" type="curve"/>
      <point x="1014" y="10" type="line"/>
      <point x="1006" y="80"/>
      <point x="1004" y="192"/>
      <point x="1024" y="352" type="curve" name="hr00"/>
      <point x="1102" y="990" type="line"/>
      <point x="970" y="1036"/>
      <point x="868" y="1054"/>
      <point x="756" y="1054" type="curve" smooth="yes"/>
      <point x="446" y="1054"/>
      <point x="200" y="838"/>
      <point x="160" y="512" type="curve" smooth="yes"/>
      <point x="120" y="186"/>
      <point x="294" y="-42"/>
    </contour>
  </outline>
</glyph>
<glyph name="d" format="2">
  <advance width="1196"/>
  <unicode hex="0064"/>
  <anchor x="534" y="0" name="bottom"/>
  <anchor x="968" y="1280" name="center"/>
  <anchor x="1112" y="1516" name="top"/>
  <anchor x="1340" y="1516" name="topright"/>
  <outline>
    <contour>
      <point x="538" y="-20" type="curve" name="hr02"/>
      <point x="620" y="-20"/>
      <point x="744" y="12"/>
      <point x="838" y="106" type="curve"/>
      <point x="858" y="140" type="line"/>
      <point x="858" y="108" type="line"/>
      <point x="872" y="54"/>
      <point x="886" y="28"/>
      <point x="916" y="0" type="curve" name="hr01"/>
      <point x="1052" y="10" type="line"/>
      <point x="1044" y="80"/>
      <point x="1042" y="192"/>
      <point x="1062" y="352" type="curve" smooth="yes"/>
      <point x="1204" y="1502" type="line"/>
      <point x="1020" y="1516" type="line"/>
      <point x="866" y="270" type="line"/>
      <point x="772" y="170"/>
      <point x="678" y="124"/>
      <point x="586" y="124" type="curve"/>
      <point x="410" y="124"/>
      <point x="334" y="290"/>
      <point x="364" y="522" type="curve"/>
      <point x="396" y="794"/>
      <point x="550" y="906"/>
      <point x="688" y="902" type="curve" smooth="yes"/>
      <point x="782" y="900"/>
      <point x="846" y="946"/>
      <point x="890" y="1012" type="curve"/>
      <point x="820" y="1038"/>
      <point x="754" y="1046"/>
      <point x="694" y="1046" type="curve" smooth="yes"/>
      <point x="456" y="1046"/>
      <point x="204" y="842"/>
      <point x="166" y="522" type="curve"/>
      <point x="128" y="216"/>
      <point x="258" y="-20"/>
    </contour>
  </outline>
</glyph>
<glyph name="l" format="2">
  <advance width="508"/>
  <unicode hex="006C"/>
  <anchor x="262" y="0" name="bottom"/>
  <anchor x="372" y="900" name="center"/>
  <anchor x="446" y="1516" name="top"/>
  <anchor x="614" y="1516" name="topright"/>
  <outline>
    <contour>
      <point x="170" y="0" type="line"/>
      <point x="352" y="0" type="line" name="hr00"/>
      <point x="536" y="1502" type="line"/>
      <point x="356" y="1516" type="line"/>
    </contour>
  </outline>
</glyph>
<glyph name="o" format="2">
  <advance width="1132"/>
  <unicode hex="006F"/>
  <anchor x="560" y="0" name="bottom"/>
  <anchor x="624" y="518" name="center"/>
  <anchor x="956" y="0" name="ogonek"/>
  <anchor x="688" y="1034" name="top"/>
  <anchor x="1156" y="1034" name="topright"/>
  <outline>
    <contour>
      <point x="558" y="-20" type="curve" smooth="yes"/>
      <point x="816" y="-20"/>
      <point x="1064" y="170"/>
      <point x="1106" y="518" type="curve" smooth="yes"/>
      <point x="1144" y="818"/>
      <point x="996" y="1054"/>
      <point x="690" y="1054" type="curve"/>
      <point x="454" y="1054"/>
      <point x="188" y="884"/>
      <point x="142" y="518" type="curve" smooth="yes" name="hr00"/>
      <point x="100" y="170"/>
      <point x="290" y="-20"/>
    </contour>
    <contour>
      <point x="576" y="124" type="curve"/>
      <point x="394" y="124"/>
      <point x="312" y="286"/>
      <point x="340" y="518" type="curve" smooth="yes"/>
      <point x="374" y="786"/>
      <point x="520" y="910"/>
      <point x="672" y="910" type="curve"/>
      <point x="824" y="910"/>
      <point x="942" y="786"/>
      <point x="908" y="518" type="curve" smooth="yes"/>
      <point x="882" y="304"/>
      <point x="770" y="124"/>
    </contour>
  </outline>
</glyph>
<glyph name="p" format="2">
  <advance width="1196"/>
  <unicode hex="0070"/>
  <anchor x="210" y="-482" name="bottom"/>
  <anchor x="742" y="1034" name="top"/>
  <outline>
    <contour>
      <point x="120" y="-468" type="line"/>
      <point x="302" y="-482" type="line"/>
      <point x="454" y="764" type="line"/>
      <point x="550" y="864"/>
      <point x="644" y="910"/>
      <point x="734" y="910" type="curve"/>
      <point x="912" y="910"/>
      <point x="986" y="744"/>
      <point x="958" y="512" type="curve"/>
      <point x="924" y="242"/>
      <point x="770" y="128"/>
      <point x="634" y="132" type="curve" smooth="yes"/>
      <point x="542" y="134"/>
      <point x="478" y="88"/>
      <point x="432" y="22" type="curve"/>
      <point x="500" y="-4"/>
      <point x="568" y="-12"/>
      <point x="628" y="-12" type="curve" smooth="yes"/>
      <point x="868" y="-12"/>
      <point x="1116" y="192"/>
      <point x="1156" y="512" type="curve"/>
      <point x="1194" y="818"/>
      <point x="1064" y="1054"/>
      <point x="784" y="1054" type="curve" name="hr02"/>
      <point x="700" y="1054"/>
      <point x="578" y="1022"/>
      <point x="484" y="930" type="curve"/>
      <point x="462" y="894" type="line"/>
      <point x="462" y="926" type="line"/>
      <point x="452" y="980"/>
      <point x="436" y="1006"/>
      <point x="406" y="1034" type="curve" name="hr01"/>
      <point x="270" y="1024" type="line"/>
      <point x="278" y="954"/>
      <point x="280" y="842"/>
      <point x="260" y="682" type="curve" smooth="yes"/>
    </contour>
  </outline>
</glyph>
<glyph name="q" format="2">
  <advance width="1164"/>
  <unicode hex="0071"/>
  <anchor x="844" y="-482" name="bottom"/>
  <anchor x="766" y="1034" name="top"/>
  <outline>
    <contour>
      <point x="754" y="-468" type="line"/>
      <point x="934" y="-482" type="line"/>
      <point x="1114" y="990" type="line"/>
      <point x="982" y="1036"/>
      <point x="880" y="1054"/>
      <point x="768" y="1054" type="curve" smooth="yes"/>
      <point x="458" y="1054"/>
      <point x="212" y="838"/>
      <point x="172" y="512" type="curve" smooth="yes"/>
      <point x="132" y="186"/>
      <point x="310" y="-44"/>
      <point x="548" y="-10" type="curve" smooth="yes"/>
      <point x="608" y="-2"/>
      <point x="684" y="26"/>
      <point x="752" y="74" type="curve" name="hr00"/>
      <point x="708" y="132"/>
      <point x="654" y="150"/>
      <point x="596" y="140" type="curve" smooth="yes"/>
      <point x="412" y="110"/>
      <point x="340" y="286"/>
      <point x="368" y="512" type="curve" smooth="yes"/>
      <point x="400" y="768"/>
      <point x="550" y="910"/>
      <point x="750" y="910" type="curve" smooth="yes"/>
      <point x="810" y="910"/>
      <point x="860" y="904"/>
      <point x="920" y="888" type="curve"/>
    </contour>
  </outline>
</glyph>
<glyph name="r" format="2">
  <advance width="782"/>
  <unicode hex="0072"/>
  <anchor x="264" y="0" name="bottom"/>
  <anchor x="560" y="1034" name="top"/>
  <outline>
    <contour>
      <point x="174" y="0" type="line"/>
      <point x="352" y="0" type="line"/>
      <point x="418" y="552" type="line" smooth="yes"/>
      <point x="448" y="792"/>
      <point x="592" y="888"/>
      <point x="716" y="888" type="curve" smooth="yes"/>
      <point x="740" y="888"/>
      <point x="770" y="886"/>
      <point x="810" y="876" type="curve"/>
      <point x="854" y="1032" type="line"/>
      <point x="818" y="1042"/>
      <point x="788" y="1048"/>
      <point x="758" y="1048" type="curve" smooth="yes" name="hr01"/>
      <point x="650" y="1048"/>
      <point x="534" y="976"/>
      <point x="470" y="874" type="curve"/>
      <point x="450" y="838" type="line"/>
      <point x="454" y="874" type="line"/>
      <point x="450" y="938"/>
      <point x="442" y="990"/>
      <point x="406" y="1034" type="curve"/>
      <point x="266" y="1024" type="line"/>
      <point x="276" y="930"/>
      <point x="270" y="796"/>
      <point x="254" y="674" type="curve" smooth="yes" name="hr02"/>
    </contour>
  </outline>
</glyph>
<glyph name="t" format="2">
  <advance width="852"/>
  <unicode hex="0074"/>
  <anchor x="460" y="0" name="bottom"/>
  <anchor x="454" y="598" name="center"/>
  <anchor x="450" y="1298" name="top"/>
  <anchor x="902" y="1298" name="topright"/>
  <outline>
    <contour>
      <point x="538" y="-22" type="curve" smooth="yes"/>
      <point x="602" y="-22"/>
      <point x="646" y="-12"/>
      <point x="752" y="22" type="curve"/>
      <point x="724" y="148" type="line"/>
      <point x="650" y="126"/>
      <point x="608" y="118"/>
      <point x="556" y="118" type="curve" smooth="yes"/>
      <point x="458" y="118"/>
      <point x="406" y="222"/>
      <point x="424" y="360" type="curve"/>
      <point x="546" y="1354" type="line"/>
      <point x="362" y="1298" type="line"/>
      <point x="330" y="1034" type="line"/>
      <point x="140" y="986" type="line"/>
      <point x="130" y="896" type="line"/>
      <point x="314" y="896" type="line" name="hr00"/>
      <point x="250" y="382" type="line"/>
      <point x="218" y="128"/>
      <point x="320" y="-22"/>
    </contour>
    <contour>
      <point x="730" y="896" type="curve"/>
      <point x="844" y="896" type="line"/>
      <point x="860" y="1034" type="line"/>
      <point x="578" y="1034" type="line"/>
      <point x="594" y="958"/>
      <point x="636" y="896"/>
    </contour>
  </outline>
</glyph>
<glyph name="u" format="2">
  <advance width="1174"/>
  <unicode hex="0075"/>
  <anchor x="564" y="0" name="bottom"/>
  <anchor x="1012" y="10" name="ogonek"/>
  <anchor x="696" y="1034" name="top"/>
  <anchor x="1198" y="1034" name="topright"/>
  <outline>
    <contour>
      <point x="428" y="-20" type="curve" smooth="yes"/>
      <point x="500" y="-20"/>
      <point x="596" y="2"/>
      <point x="748" y="86" type="curve"/>
      <point x="698" y="144"/>
      <point x="634" y="158"/>
      <point x="554" y="140" type="curve" smooth="yes"/>
      <point x="518" y="132"/>
      <point x="498" y="124"/>
      <point x="466" y="124" type="curve" smooth="yes" name="hr01"/>
      <point x="382" y="124"/>
      <point x="352" y="190"/>
      <point x="364" y="282" type="curve" smooth="yes"/>
      <point x="456" y="1034" type="line"/>
      <point x="268" y="1034" type="line"/>
      <point x="178" y="302" type="line" smooth="yes"/>
      <point x="148" y="54"/>
      <point x="270" y="-20"/>
    </contour>
    <contour>
      <point x="870" y="0" type="curve"/>
      <point x="1012" y="10" type="line"/>
      <point x="998" y="104"/>
      <point x="1000" y="188"/>
      <point x="1010" y="262" type="curve" smooth="yes"/>
      <point x="1104" y="1034" type="line"/>
      <point x="918" y="1034" type="line"/>
      <point x="818" y="220" type="line" smooth="yes"/>
      <point x="808" y="140"/>
      <point x="814" y="72"/>
    </contour>
  </outline>
</glyph>
<glyph name="v" format="2">
  <advance width="1032"/>
  <unicode hex="0076"/>
  <anchor x="518" y="0" name="bottom"/>
  <anchor x="648" y="1034" name="top"/>
  <outline>
    <contour>
      <point x="420" y="0" type="line" name="hr00"/>
      <point x="616" y="0" type="line"/>
      <point x="1124" y="1020" type="line"/>
      <point x="938" y="1034" type="line"/>
      <point x="564" y="228" type="line"/>
      <point x="544" y="178" type="line"/>
      <point x="534" y="228" type="line"/>
      <point x="358" y="1034" type="line"/>
      <point x="158" y="1034" type="line"/>
    </contour>
  </outline>
</glyph>
<glyph name="y" format="2">
  <advance width="1058"/>
  <unicode hex="0079"/>
  <anchor x="870" y="0" name="bottom"/>
  <anchor x="662" y="1034" name="top"/>
  <outline>
    <contour>
      <point x="180" y="-492" type="curve"/>
      <point x="430" y="-490"/>
      <point x="524" y="-260"/>
      <point x="664" y="22" type="curve"/>
      <point x="1148" y="1020" type="line"/>
      <point x="960" y="1034" type="line"/>
      <point x="532" y="74" type="line"/>
      <point x="418" y="-164"/>
      <point x="352" y="-348"/>
      <point x="198" y="-348" type="curve"/>
      <point x="160" y="-348"/>
      <point x="120" y="-342"/>
      <point x="76" y="-330" type="curve"/>
      <point x="12" y="-462" type="line"/>
      <point x="66" y="-480"/>
      <point x="126" y="-490"/>
    </contour>
    <contour>
      <point x="408" y="20" type="line"/>
      <point x="476" y="86"/>
      <point x="520" y="230"/>
      <point x="490" y="358" type="curve" name="hr00"/>
      <point x="354" y="1034" type="line"/>
      <point x="158" y="1034" type="line"/>
    </contour>
  </outline>
</glyph>
<glyph name="z" format="2">
  <advance width="896"/>
  <unicode hex="007A"/>
  <anchor x="460" y="0" name="bottom"/>
  <anchor x="606" y="1034" name="top"/>
  <outline>
    <contour>
      <point x="70" y="0" type="line"/>
      <point x="848" y="0" type="line"/>
      <point x="864" y="136" type="line"/>
      <point x="350" y="136" type="line"/>
      <point x="302" y="130" type="line"/>
      <point x="340" y="164" type="line"/>
      <point x="952" y="958" type="line"/>
      <point x="962" y="1034" type="line"/>
      <point x="262" y="1034" type="line" name="hr00"/>
      <point x="246" y="902" type="line"/>
      <point x="690" y="902" type="line"/>
      <point x="732" y="908" type="line"/>
      <point x="698" y="874" type="line"/>
      <point x="78" y="76" type="line"/>
    </contour>
  </outline>
</glyph>
<glyph name="braceleft" format="2">
  <advance width="806"/>
  <unicode hex="007B"/>
  <outline>
    <contour>
      <point x="676" y="-352" type="curve"/>
      <point x="768" y="-252" type="line"/>
      <point x="584" y="-90"/>
      <point x="546" y="78"/>
      <point x="562" y="336" type="curve"/>
      <point x="570" y="444"/>
      <point x="522" y="526"/>
      <point x="444" y="582" type="curve"/>
      <point x="396" y="606" type="line"/>
      <point x="448" y="628" type="line"/>
      <point x="538" y="684"/>
      <point x="608" y="768"/>
      <point x="628" y="878" type="curve"/>
      <point x="676" y="1116"/>
      <point x="760" y="1280"/>
      <point x="976" y="1434" type="curve"/>
      <point x="908" y="1534" type="line"/>
      <point x="640" y="1368"/>
      <point x="528" y="1156"/>
      <point x="462" y="830" type="curve"/>
      <point x="446" y="736"/>
      <point x="348" y="682"/>
      <point x="244" y="664" type="curve"/>
      <point x="230" y="550" type="line"/>
      <point x="330" y="532"/>
      <point x="410" y="478"/>
      <point x="404" y="384" type="curve" name="hr00"/>
      <point x="382" y="30"/>
      <point x="442" y="-178"/>
    </contour>
  </outline>
</glyph>
<glyph name="bar" format="2">
  <advance width="634"/>
  <unicode hex="007C"/>
  <outline>
    <contour>
      <point x="158" y="-586" type="line" name="hr00"/>
      <point x="318" y="-586" type="line"/>
      <point x="588" y="1622" type="line"/>
      <point x="428" y="1622" type="line"/>
    </contour>
  </outline>
</glyph>
<glyph name="braceright" format="2">
  <advance width="806"/>
  <unicode hex="007D"/>
  <outline>
    <contour>
      <point x="200" y="-352" type="line"/>
      <point x="478" y="-178"/>
      <point x="588" y="30"/>
      <point x="652" y="384" type="curve" name="hr00"/>
      <point x="670" y="478"/>
      <point x="762" y="532"/>
      <point x="866" y="550" type="curve"/>
      <point x="880" y="664" type="line"/>
      <point x="780" y="682"/>
      <point x="698" y="736"/>
      <point x="702" y="830" type="curve"/>
      <point x="716" y="1156"/>
      <point x="656" y="1368"/>
      <point x="432" y="1534" type="curve"/>
      <point x="340" y="1434" type="line"/>
      <point x="516" y="1280"/>
      <point x="560" y="1116"/>
      <point x="548" y="878" type="curve"/>
      <point x="544" y="768"/>
      <point x="590" y="684"/>
      <point x="668" y="628" type="curve"/>
      <point x="716" y="606" type="line"/>
      <point x="664" y="586" type="line"/>
      <point x="572" y="530"/>
      <point x="504" y="446"/>
      <point x="482" y="336" type="curve"/>
      <point x="434" y="78"/>
      <point x="356" y="-90"/>
      <point x="132" y="-252" type="curve"/>
    </contour>
  </outline>
</glyph>
<glyph name="exclamdown" format="2">
  <advance width="702"/>
  <unicode hex="00A1"/>
  <outline>
    <contour>
      <point x="88" y="-420" type="line" name="hr00"/>
      <point x="276" y="-420" type="line"/>
      <point x="380" y="664" type="line"/>
      <point x="244" y="664" type="line"/>
    </contour>
    <contour>
      <point x="330" y="824" type="curve" smooth="yes"/>
      <point x="400" y="824"/>
      <point x="458" y="876"/>
      <point x="468" y="946" type="curve" smooth="yes"/>
      <point x="476" y="1014"/>
      <point x="430" y="1064"/>
      <point x="360" y="1064" type="curve" smooth="yes"/>
      <point x="292" y="1064"/>
      <point x="236" y="1014"/>
      <point x="228" y="946" type="curve"/>
      <point x="218" y="876"/>
      <point x="262" y="824"/>
    </contour>
  </outline>
</glyph>
<glyph name="currency" format="2">
  <advance width="1026"/>
  <unicode hex="00A4"/>
  <outline>
    <contour>
      <point x="166" y="216" type="line"/>
      <point x="322" y="356" type="line"/>
      <point x="370" y="306"/>
      <point x="458" y="276"/>
      <point x="540" y="276" type="curve" smooth="yes"/>
      <point x="620" y="276"/>
      <point x="718" y="304"/>
      <point x="786" y="362" type="curve"/>
      <point x="914" y="216" type="line"/>
      <point x="1004" y="296" type="line"/>
      <point x="872" y="444" type="line"/>
      <point x="914" y="494"/>
      <point x="958" y="580"/>
      <point x="972" y="690" type="curve" smooth="yes"/>
      <point x="984" y="786"/>
      <point x="962" y="870"/>
      <point x="930" y="924" type="curve"/>
      <point x="1104" y="1066" type="line"/>
      <point x="1036" y="1148" type="line"/>
      <point x="866" y="1008" type="line"/>
      <point x="816" y="1056"/>
      <point x="738" y="1088"/>
      <point x="644" y="1088" type="curve" name="hr00"/>
      <point x="556" y="1088"/>
      <point x="468" y="1056"/>
      <point x="406" y="1006" type="curve"/>
      <point x="276" y="1148" type="line"/>
      <point x="188" y="1066" type="line"/>
      <point x="320" y="924" type="line"/>
      <point x="272" y="868"/>
      <point x="226" y="782"/>
      <point x="212" y="678" type="curve" smooth="yes"/>
      <point x="200" y="580"/>
      <point x="224" y="490"/>
      <point x="256" y="438" type="curve"/>
      <point x="96" y="296" type="line"/>
    </contour>
    <contour>
      <point x="556" y="394" type="curve" smooth="yes"/>
      <point x="454" y="394"/>
      <point x="330" y="486"/>
      <point x="354" y="680" type="curve" smooth="yes"/>
      <point x="374" y="836"/>
      <point x="480" y="970"/>
      <point x="628" y="970" type="curve"/>
      <point x="782" y="970"/>
      <point x="846" y="826"/>
      <point x="830" y="688" type="curve" smooth="yes"/>
      <point x="804" y="482"/>
      <point x="668" y="394"/>
    </contour>
  </outline>
</glyph>
<glyph name="brokenbar" format="2">
  <advance width="508"/>
  <unicode hex="00A6"/>
  <outline>
    <contour>
      <point x="110" y="-586" type="line"/>
      <point x="270" y="-586" type="line"/>
      <point x="376" y="282" type="line"/>
      <point x="216" y="282" type="line"/>
    </contour>
    <contour>
      <point x="276" y="774" type="line" name="hr00"/>
      <point x="436" y="774" type="line"/>
      <point x="540" y="1622" type="line"/>
      <point x="380" y="1622" type="line"/>
    </contour>
  </outline>
</glyph>
<glyph name="copyright" format="2">
  <advance width="1440"/>
  <unicode hex="00A9"/>
  <outline>
    <contour>
      <point x="720" y="62" type="curve" smooth="yes"/>
      <point x="1104" y="62"/>
      <point x="1400" y="352"/>
      <point x="1444" y="714" type="curve" smooth="yes"/>
      <point x="1488" y="1070"/>
      <point x="1264" y="1360"/>
      <point x="880" y="1360" type="curve" name="hr00"/>
      <point x="492" y="1360"/>
      <point x="194" y="1070"/>
      <point x="150" y="714" type="curve" smooth="yes"/>
      <point x="106" y="352"/>
      <point x="332" y="62"/>
    </contour>
    <contour>
      <point x="796" y="352" type="curve"/>
      <point x="838" y="352"/>
      <point x="908" y="362"/>
      <point x="986" y="398" type="curve"/>
      <point x="964" y="492" type="line"/>
      <point x="898" y="464"/>
      <point x="846" y="454"/>
      <point x="808" y="454" type="curve"/>
      <point x="706" y="454"/>
      <point x="630" y="538"/>
      <point x="650" y="714" type="curve"/>
      <point x="672" y="886"/>
      <point x="772" y="970"/>
      <point x="872" y="970" type="curve"/>
      <point x="912" y="970"/>
      <point x="956" y="966"/>
      <point x="1002" y="950" type="curve"/>
      <point x="1048" y="1046" type="line"/>
      <point x="994" y="1064"/>
      <point x="934" y="1074"/>
      <point x="884" y="1074" type="curve"/>
      <point x="710" y="1074"/>
      <point x="546" y="946"/>
      <point x="516" y="714" type="curve"/>
      <point x="488" y="480"/>
      <point x="618" y="352"/>
    </contour>
    <contour>
      <point x="734" y="178" type="curve"/>
      <point x="434" y="180"/>
      <point x="256" y="394"/>
      <point x="294" y="708" type="curve" smooth="yes"/>
      <point x="332" y="1026"/>
      <point x="564" y="1244"/>
      <point x="866" y="1246" type="curve"/>
      <point x="1162" y="1246"/>
      <point x="1338" y="1026"/>
      <point x="1300" y="714" type="curve" smooth="yes"/>
      <point x="1262" y="394"/>
      <point x="1030" y="174"/>
    </contour>
  </outline>
</glyph>
<glyph name="logicalnot" format="2">
  <advance width="1138"/>
  <unicode hex="00AC"/>
  <outline>
    <contour>
      <point x="950" y="312" type="line"/>
      <point x="1096" y="312" type="line"/>
      <point x="1164" y="876" type="line" name="hr00"/>
      <point x="192" y="876" type="line"/>
      <point x="176" y="748" type="line"/>
      <point x="1002" y="748" type="line"/>
    </contour>
  </outline>
</glyph>
<glyph name="degree" format="2">
  <advance width="674"/>
  <unicode hex="00B0"/>
  <outline>
    <contour>
      <point x="468" y="966" type="curve"/>
      <point x="604" y="966"/>
      <point x="772" y="1066"/>
      <point x="794" y="1246" type="curve"/>
      <point x="816" y="1428"/>
      <point x="672" y="1526"/>
      <point x="536" y="1526" type="curve"/>
      <point x="370" y="1526"/>
      <point x="228" y="1396"/>
      <point x="210" y="1246" type="curve"/>
      <point x="190" y="1084"/>
      <point x="312" y="966"/>
    </contour>
    <contour>
      <point x="480" y="1066" type="curve"/>
      <point x="368" y="1066"/>
      <point x="324" y="1156"/>
      <point x="336" y="1246" type="curve"/>
      <point x="346" y="1330"/>
      <point x="412" y="1426"/>
      <point x="524" y="1426" type="curve" name="hr00"/>
      <point x="610" y="1426"/>
      <point x="684" y="1356"/>
      <point x="670" y="1246" type="curve"/>
      <point x="662" y="1174"/>
      <point x="598" y="1066"/>
    </contour>
  </outline>
</glyph>
<glyph name="plusminus" format="2">
  <advance width="1136"/>
  <unicode hex="00B1"/>
  <outline>
    <contour>
      <point x="516" y="244" type="line"/>
      <point x="662" y="244" type="line"/>
      <point x="708" y="606" type="line"/>
      <point x="1104" y="606" type="line"/>
      <point x="1120" y="734" type="line"/>
      <point x="724" y="734" type="line"/>
      <point x="768" y="1092" type="line"/>
      <point x="622" y="1092" type="line"/>
      <point x="578" y="734" type="line"/>
      <point x="184" y="734" type="line" name="hr00"/>
      <point x="168" y="606" type="line"/>
      <point x="562" y="606" type="line"/>
    </contour>
    <contour>
      <point x="94" y="0" type="line"/>
      <point x="1030" y="0" type="line"/>
      <point x="1044" y="126" type="line"/>
      <point x="108" y="126" type="line"/>
    </contour>
  </outline>
</glyph>
<glyph name="twosuperior" format="2">
  <advance width="804"/>
  <unicode hex="00B2"/>
  <outline>
    <contour>
      <point x="222" y="620" type="line"/>
      <point x="744" y="620" type="line"/>
      <point x="758" y="738" type="line"/>
      <point x="426" y="738" type="line"/>
      <point x="400" y="734" type="line"/>
      <point x="420" y="754" type="line"/>
      <point x="534" y="910"/>
      <point x="784" y="1064"/>
      <point x="808" y="1256" type="curve" smooth="yes" name="hr00"/>
      <point x="824" y="1394"/>
      <point x="706" y="1472"/>
      <point x="562" y="1472" type="curve" smooth="yes"/>
      <point x="498" y="1472"/>
      <point x="430" y="1462"/>
      <point x="354" y="1422" type="curve"/>
      <point x="386" y="1330" type="line"/>
      <point x="444" y="1352"/>
      <point x="490" y="1364"/>
      <point x="536" y="1364" type="curve"/>
      <point x="620" y="1364"/>
      <point x="678" y="1332"/>
      <point x="668" y="1242" type="curve"/>
      <point x="648" y="1084"/>
      <point x="420" y="950"/>
      <point x="230" y="692" type="curve"/>
    </contour>
  </outline>
</glyph>
<glyph name="micro" format="2">
  <advance width="1106"/>
  <unicode hex="00B5"/>
  <outline>
    <contour>
      <point x="96" y="-422" type="line"/>
      <point x="268" y="-422" type="line"/>
      <point x="322" y="30" type="line"/>
      <point x="326" y="94" type="line"/>
      <point x="352" y="50" type="line"/>
      <point x="388" y="6"/>
      <point x="450" y="-20"/>
      <point x="526" y="-20" type="curve" smooth="yes"/>
      <point x="658" y="-20"/>
      <point x="748" y="52"/>
      <point x="806" y="122" type="curve"/>
      <point x="836" y="170" type="line"/>
      <point x="838" y="122" type="line"/>
      <point x="852" y="20"/>
      <point x="916" y="-16"/>
      <point x="998" y="-16" type="curve" smooth="yes"/>
      <point x="1028" y="-16"/>
      <point x="1062" y="-10"/>
      <point x="1108" y="6" type="curve"/>
      <point x="1106" y="134" type="line"/>
      <point x="1022" y="130"/>
      <point x="1000" y="170"/>
      <point x="1014" y="282" type="curve" smooth="yes"/>
      <point x="1106" y="1034" type="line"/>
      <point x="920" y="1034" type="line"/>
      <point x="842" y="398" type="line" smooth="yes"/>
      <point x="824" y="254"/>
      <point x="686" y="130"/>
      <point x="562" y="130" type="curve" smooth="yes" name="hr01"/>
      <point x="414" y="130"/>
      <point x="364" y="262"/>
      <point x="382" y="420" type="curve" smooth="yes"/>
      <point x="458" y="1034" type="line"/>
      <point x="274" y="1034" type="line"/>
    </contour>
  </outline>
</glyph>
<glyph name="paragraph" format="2">
  <advance width="1218"/>
  <unicode hex="00B6"/>
  <outline>
    <contour>
      <point x="642" y="-60" type="line"/>
      <point x="788" y="-60" type="line"/>
      <point x="958" y="1332" type="line"/>
      <point x="1006" y="1330"/>
      <point x="1058" y="1326"/>
      <point x="1116" y="1316" type="curve"/>
      <point x="948" y="-60" type="line"/>
      <point x="1094" y="-60" type="line"/>
      <point x="1278" y="1440" type="line"/>
      <point x="1132" y="1470"/>
      <point x="1032" y="1480"/>
      <point x="886" y="1480" type="curve" smooth="yes"/>
      <point x="564" y="1480"/>
      <point x="364" y="1272"/>
      <point x="334" y="1040" type="curve" smooth="yes"/>
      <point x="304" y="794"/>
      <point x="482" y="630"/>
      <point x="720" y="610" type="curve"/>
      <point x="720" y="610"/>
      <point x="722" y="608"/>
      <point x="724" y="608" type="curve" name="hr00"/>
    </contour>
  </outline>
</glyph>
<glyph name="onequarter" format="2">
  <advance width="1396"/>
  <unicode hex="00BC"/>
  <outline>
    <contour>
      <point x="178" y="0" type="line" name="hr00"/>
      <point x="302" y="0" type="line"/>
      <point x="1352" y="1454" type="line"/>
      <point x="1228" y="1454" type="line"/>
    </contour>
    <contour>
      <point x="318" y="618" type="line"/>
      <point x="456" y="618" type="line"/>
      <point x="560" y="1454" type="line"/>
      <point x="494" y="1454" type="line"/>
      <point x="228" y="1320" type="line"/>
      <point x="270" y="1226" type="line"/>
      <point x="402" y="1290" type="line"/>
    </contour>
    <contour>
      <point x="1088" y="0" type="line"/>
      <point x="1216" y="0" type="line"/>
      <point x="1236" y="178" type="line"/>
      <point x="1332" y="178" type="line"/>
      <point x="1346" y="286" type="line"/>
      <point x="1250" y="286" type="line"/>
      <point x="1318" y="846" type="line"/>
      <point x="1172" y="846" type="line"/>
      <point x="730" y="290" type="line"/>
      <point x="716" y="178" type="line"/>
      <point x="1050" y="178" type="line"/>
      <point x="1036" y="220"/>
      <point x="1000" y="288"/>
      <point x="920" y="288" type="curve"/>
      <point x="890" y="288" type="line"/>
      <point x="856" y="284" type="line"/>
      <point x="880" y="308" type="line"/>
      <point x="1142" y="628" type="line"/>
      <point x="1174" y="672" type="line"/>
      <point x="1164" y="624" type="line"/>
    </contour>
  </outline>
</glyph>
<glyph name="onehalf" format="2">
  <advance width="1526"/>
  <unicode hex="00BD"/>
  <outline>
    <contour>
      <point x="178" y="0" type="line" name="hr00"/>
      <point x="302" y="0" type="line"/>
      <point x="1352" y="1454" type="line"/>
      <point x="1228" y="1454" type="line"/>
    </contour>
    <contour>
      <point x="318" y="618" type="line"/>
      <point x="456" y="618" type="line"/>
      <point x="560" y="1454" type="line"/>
      <point x="494" y="1454" type="line"/>
      <point x="228" y="1320" type="line"/>
      <point x="270" y="1226" type="line"/>
      <point x="402" y="1290" type="line"/>
    </contour>
    <contour>
      <point x="852" y="0" type="line"/>
      <point x="1374" y="0" type="line"/>
      <point x="1388" y="118" type="line"/>
      <point x="1056" y="118" type="line"/>
      <point x="1028" y="114" type="line"/>
      <point x="1050" y="134" type="line"/>
      <point x="1164" y="290"/>
      <point x="1414" y="444"/>
      <point x="1438" y="636" type="curve" smooth="yes"/>
      <point x="1454" y="774"/>
      <point x="1336" y="852"/>
      <point x="1192" y="852" type="curve" smooth="yes"/>
      <point x="1128" y="852"/>
      <point x="1060" y="842"/>
      <point x="984" y="802" type="curve"/>
      <point x="1016" y="710" type="line"/>
      <point x="1072" y="732"/>
      <point x="1120" y="744"/>
      <point x="1166" y="744" type="curve"/>
      <point x="1250" y="744"/>
      <point x="1308" y="712"/>
      <point x="1298" y="622" type="curve"/>
      <point x="1278" y="464"/>
      <point x="1050" y="330"/>
      <point x="860" y="72" type="curve"/>
    </contour>
  </outline>
</glyph>
<glyph name="threequarters" format="2">
  <advance width="1432"/>
  <unicode hex="00BE"/>
  <outline>
    <contour>
      <point x="254" y="0" type="line"/>
      <point x="378" y="0" type="line"/>
      <point x="1428" y="1454" type="line"/>
      <point x="1304" y="1454" type="line"/>
    </contour>
    <contour>
      <point x="326" y="602" type="curve" smooth="yes"/>
      <point x="510" y="602"/>
      <point x="648" y="726"/>
      <point x="666" y="864" type="curve" smooth="yes"/>
      <point x="680" y="984"/>
      <point x="598" y="1054"/>
      <point x="510" y="1076" type="curve"/>
      <point x="606" y="1118"/>
      <point x="678" y="1196"/>
      <point x="688" y="1280" type="curve" smooth="yes"/>
      <point x="702" y="1390"/>
      <point x="616" y="1470"/>
      <point x="470" y="1470" type="curve" smooth="yes"/>
      <point x="404" y="1470"/>
      <point x="332" y="1460"/>
      <point x="254" y="1420" type="curve"/>
      <point x="288" y="1326" type="line"/>
      <point x="344" y="1348"/>
      <point x="398" y="1360"/>
      <point x="444" y="1360" type="curve" smooth="yes" name="hr02"/>
      <point x="516" y="1360"/>
      <point x="554" y="1320"/>
      <point x="546" y="1262" type="curve"/>
      <point x="538" y="1192"/>
      <point x="464" y="1152"/>
      <point x="388" y="1122" type="curve" smooth="yes"/>
      <point x="322" y="1096" type="line"/>
      <point x="322" y="1008" type="line" name="hr01"/>
      <point x="458" y="1008"/>
      <point x="538" y="966"/>
      <point x="526" y="866" type="curve" smooth="yes"/>
      <point x="516" y="790"/>
      <point x="448" y="712"/>
      <point x="338" y="712" type="curve" smooth="yes"/>
      <point x="262" y="712"/>
      <point x="220" y="732"/>
      <point x="176" y="752" type="curve"/>
      <point x="128" y="658" type="line"/>
      <point x="164" y="634"/>
      <point x="234" y="602"/>
    </contour>
    <contour>
      <point x="1164" y="0" type="line"/>
      <point x="1292" y="0" type="line"/>
      <point x="1312" y="178" type="line"/>
      <point x="1408" y="178" type="line"/>
      <point x="1422" y="286" type="line"/>
      <point x="1326" y="286" type="line"/>
      <point x="1394" y="846" type="line"/>
      <point x="1248" y="846" type="line"/>
      <point x="806" y="290" type="line"/>
      <point x="792" y="178" type="line"/>
      <point x="1126" y="178" type="line"/>
      <point x="1112" y="220"/>
      <point x="1076" y="288"/>
      <point x="996" y="288" type="curve"/>
      <point x="940" y="288" type="line"/>
      <point x="1244" y="660" type="line"/>
    </contour>
  </outline>
</glyph>
<glyph name="germandbls" format="2">
  <advance width="1134"/>
  <unicode hex="00DF"/>
  <anchor x="606" y="0" name="bottom"/>
  <anchor x="768" y="1516" name="top"/>
  <outline>
    <contour>
      <point x="784" y="-24" type="curve" smooth="yes" name="hr02"/>
      <point x="954" y="-24"/>
      <point x="1106" y="108"/>
      <point x="1126" y="262" type="curve" smooth="yes"/>
      <point x="1164" y="578"/>
      <point x="818" y="588"/>
      <point x="844" y="802" type="curve" smooth="yes"/>
      <point x="854" y="880"/>
      <point x="910" y="924"/>
      <point x="1008" y="968" type="curve"/>
      <point x="1068" y="1048"/>
      <point x="1094" y="1106"/>
      <point x="1104" y="1176" type="curve" smooth="yes"/>
      <point x="1126" y="1362"/>
      <point x="1010" y="1526"/>
      <point x="762" y="1526" type="curve" smooth="yes"/>
      <point x="518" y="1526"/>
      <point x="348" y="1354"/>
      <point x="314" y="1090" type="curve" smooth="yes"/>
      <point x="182" y="0" type="line"/>
      <point x="356" y="0" type="line" name="hr01"/>
      <point x="492" y="1110" type="line" smooth="yes"/>
      <point x="516" y="1310"/>
      <point x="656" y="1390"/>
      <point x="768" y="1390" type="curve" smooth="yes"/>
      <point x="872" y="1390"/>
      <point x="960" y="1302"/>
      <point x="946" y="1176" type="curve" smooth="yes"/>
      <point x="942" y="1142"/>
      <point x="934" y="1112"/>
      <point x="922" y="1082" type="curve"/>
      <point x="768" y="1022"/>
      <point x="678" y="918"/>
      <point x="664" y="802" type="curve" smooth="yes"/>
      <point x="626" y="498"/>
      <point x="974" y="490"/>
      <point x="946" y="272" type="curve" smooth="yes"/>
      <point x="936" y="182"/>
      <point x="864" y="120"/>
      <point x="784" y="120" type="curve" smooth="yes"/>
      <point x="726" y="120"/>
      <point x="650" y="134"/>
      <point x="566" y="174" type="curve"/>
      <point x="504" y="50" type="line"/>
      <point x="622" y="-14"/>
      <point x="704" y="-24"/>
    </contour>
  </outline>
</glyph>
<glyph name="ae" format="2">
  <advance width="1700"/>
  <unicode hex="00E6"/>
  <anchor x="838" y="0" name="bottom"/>
  <anchor x="974" y="1034" name="top"/>
  <outline>
    <contour>
      <point x="424" y="-20" type="curve" smooth="yes"/>
      <point x="610" y="-20"/>
      <point x="774" y="90"/>
      <point x="850" y="262" type="curve"/>
      <point x="884" y="104"/>
      <point x="1032" y="-20"/>
      <point x="1198" y="-20" type="curve" smooth="yes"/>
      <point x="1294" y="-20"/>
      <point x="1420" y="-2"/>
      <point x="1556" y="64" type="curve"/>
      <point x="1524" y="196" type="line"/>
      <point x="1402" y="138"/>
      <point x="1328" y="124"/>
      <point x="1236" y="124" type="curve" smooth="yes"/>
      <point x="1054" y="124"/>
      <point x="938" y="286"/>
      <point x="968" y="524" type="curve" smooth="yes"/>
      <point x="998" y="770"/>
      <point x="1130" y="910"/>
      <point x="1298" y="910" type="curve" smooth="yes"/>
      <point x="1428" y="910"/>
      <point x="1514" y="788"/>
      <point x="1476" y="634" type="curve" name="hr00"/>
      <point x="1222" y="634" type="line"/>
      <point x="1126" y="634"/>
      <point x="1074" y="576"/>
      <point x="1036" y="500" type="curve"/>
      <point x="1616" y="500" type="line"/>
      <point x="1740" y="786"/>
      <point x="1610" y="1054"/>
      <point x="1336" y="1054" type="curve" smooth="yes"/>
      <point x="1176" y="1054"/>
      <point x="1016" y="962"/>
      <point x="934" y="838" type="curve"/>
      <point x="896" y="964"/>
      <point x="784" y="1054"/>
      <point x="630" y="1054" type="curve" smooth="yes"/>
      <point x="542" y="1054"/>
      <point x="444" y="1042"/>
      <point x="308" y="986" type="curve"/>
      <point x="338" y="862" type="line"/>
      <point x="440" y="896"/>
      <point x="504" y="910"/>
      <point x="576" y="910" type="curve" smooth="yes"/>
      <point x="758" y="910"/>
      <point x="816" y="800"/>
      <point x="796" y="642" type="curve" smooth="yes"/>
      <point x="782" y="524" type="line"/>
      <point x="750" y="268"/>
      <point x="636" y="124"/>
      <point x="468" y="124" type="curve" smooth="yes"/>
      <point x="366" y="124"/>
      <point x="312" y="194"/>
      <point x="322" y="276" type="curve" smooth="yes"/>
      <point x="332" y="350"/>
      <point x="376" y="422"/>
      <point x="556" y="450" type="curve" smooth="yes"/>
      <point x="664" y="466"/>
      <point x="706" y="556"/>
      <point x="720" y="604" type="curve"/>
      <point x="304" y="556"/>
      <point x="148" y="466"/>
      <point x="124" y="264" type="curve" smooth="yes"/>
      <point x="104" y="102"/>
      <point x="216" y="-20"/>
    </contour>
  </outline>
</glyph>
<glyph name="eth" format="2">
  <advance width="1114"/>
  <unicode hex="00F0"/>
  <outline>
    <contour>
      <point x="558" y="-20" type="curve" smooth="yes"/>
      <point x="816" y="-20"/>
      <point x="1064" y="170"/>
      <point x="1106" y="518" type="curve" name="hr00"/>
      <point x="1154" y="902"/>
      <point x="936" y="1212"/>
      <point x="850" y="1292" type="curve"/>
      <point x="1040" y="1378" type="line"/>
      <point x="1010" y="1466" type="line"/>
      <point x="772" y="1358" type="line"/>
      <point x="694" y="1420"/>
      <point x="600" y="1476"/>
      <point x="510" y="1520" type="curve"/>
      <point x="432" y="1404" type="line"/>
      <point x="500" y="1368"/>
      <point x="558" y="1334"/>
      <point x="614" y="1290" type="curve"/>
      <point x="404" y="1192" type="line"/>
      <point x="430" y="1106" type="line"/>
      <point x="696" y="1226" type="line"/>
      <point x="798" y="1140"/>
      <point x="842" y="1068"/>
      <point x="898" y="962" type="curve"/>
      <point x="830" y="1028"/>
      <point x="774" y="1054"/>
      <point x="686" y="1054" type="curve" smooth="yes"/>
      <point x="432" y="1054"/>
      <point x="186" y="864"/>
      <point x="142" y="518" type="curve" smooth="yes"/>
      <point x="100" y="170"/>
      <point x="290" y="-20"/>
    </contour>
    <contour>
      <point x="576" y="124" type="curve" smooth="yes"/>
      <point x="422" y="124"/>
      <point x="308" y="248"/>
      <point x="340" y="518" type="curve" smooth="yes"/>
      <point x="374" y="786"/>
      <point x="520" y="910"/>
      <point x="672" y="910" type="curve" smooth="yes"/>
      <point x="824" y="910"/>
      <point x="942" y="786"/>
      <point x="908" y="518" type="curve" smooth="yes"/>
      <point x="876" y="248"/>
      <point x="728" y="124"/>
    </contour>
  </outline>
</glyph>
<glyph name="thorn" format="2">
  <advance width="1196"/>
  <unicode hex="00FE"/>
  <anchor x="212" y="-482" name="bottom"/>
  <anchor x="458" y="1516" name="top"/>
  <outline>
    <contour>
      <point x="122" y="-482" type="line"/>
      <point x="302" y="-482" type="line"/>
      <point x="362" y="16" type="line"/>
      <point x="436" y="-12"/>
      <point x="488" y="-20"/>
      <point x="560" y="-20" type="curve" smooth="yes"/>
      <point x="860" y="-20"/>
      <point x="1092" y="204"/>
      <point x="1132" y="522" type="curve" smooth="yes"/>
      <point x="1174" y="870"/>
      <point x="992" y="1046"/>
      <point x="774" y="1046" type="curve" smooth="yes"/>
      <point x="714" y="1046"/>
      <point x="624" y="1026"/>
      <point x="550" y="992" type="curve"/>
      <point x="586" y="930"/>
      <point x="634" y="898"/>
      <point x="694" y="902" type="curve" smooth="yes"/>
      <point x="866" y="912"/>
      <point x="968" y="786"/>
      <point x="936" y="522" type="curve" smooth="yes"/>
      <point x="906" y="286"/>
      <point x="768" y="124"/>
      <point x="578" y="124" type="curve" smooth="yes"/>
      <point x="518" y="124"/>
      <point x="442" y="132"/>
      <point x="380" y="156" type="curve"/>
      <point x="548" y="1516" type="line"/>
      <point x="368" y="1516" type="line" name="hr00"/>
    </contour>
  </outline>
</glyph>
<glyph name="oe" format="2">
  <advance width="1822"/>
  <unicode hex="0153"/>
  <anchor x="940" y="0" name="bottom"/>
  <anchor x="1068" y="1034" name="top"/>
  <outline>
    <contour>
      <point x="558" y="-20" type="curve" smooth="yes"/>
      <point x="704" y="-20"/>
      <point x="854" y="66"/>
      <point x="952" y="212" type="curve"/>
      <point x="970" y="240" type="line"/>
      <point x="982" y="214" type="line"/>
      <point x="1050" y="74"/>
      <point x="1166" y="-20"/>
      <point x="1326" y="-20" type="curve" smooth="yes"/>
      <point x="1422" y="-20"/>
      <point x="1548" y="-2"/>
      <point x="1684" y="64" type="curve"/>
      <point x="1652" y="196" type="line"/>
      <point x="1530" y="138"/>
      <point x="1456" y="124"/>
      <point x="1364" y="124" type="curve" smooth="yes"/>
      <point x="1184" y="124"/>
      <point x="1068" y="282"/>
      <point x="1094" y="518" type="curve" name="hr00"/>
      <point x="1132" y="776"/>
      <point x="1262" y="910"/>
      <point x="1426" y="910" type="curve" smooth="yes"/>
      <point x="1556" y="910"/>
      <point x="1642" y="788"/>
      <point x="1604" y="634" type="curve"/>
      <point x="1350" y="634" type="line" smooth="yes"/>
      <point x="1254" y="634"/>
      <point x="1202" y="576"/>
      <point x="1164" y="500" type="curve"/>
      <point x="1744" y="500" type="line"/>
      <point x="1868" y="786"/>
      <point x="1738" y="1054"/>
      <point x="1464" y="1054" type="curve" smooth="yes"/>
      <point x="1298" y="1054"/>
      <point x="1146" y="974"/>
      <point x="1052" y="830" type="curve"/>
      <point x="1036" y="804" type="line"/>
      <point x="1026" y="830" type="line"/>
      <point x="960" y="988"/>
      <point x="840" y="1054"/>
      <point x="690" y="1054" type="curve" smooth="yes"/>
      <point x="432" y="1054"/>
      <point x="186" y="864"/>
      <point x="142" y="518" type="curve" smooth="yes"/>
      <point x="100" y="170"/>
      <point x="290" y="-20"/>
    </contour>
    <contour>
      <point x="576" y="124" type="curve" smooth="yes"/>
      <point x="422" y="124"/>
      <point x="308" y="248"/>
      <point x="340" y="518" type="curve" smooth="yes"/>
      <point x="374" y="786"/>
      <point x="520" y="910"/>
      <point x="672" y="910" type="curve" smooth="yes"/>
      <point x="820" y="910"/>
      <point x="936" y="792"/>
      <point x="908" y="518" type="curve"/>
      <point x="868" y="242"/>
      <point x="724" y="124"/>
    </contour>
  </outline>
</glyph>
<glyph name="florin" format="2">
  <advance width="1048"/>
  <unicode hex="0192"/>
  <outline>
    <contour>
      <point x="-2" y="-282" type="line"/>
      <point x="234" y="-226"/>
      <point x="394" y="-114"/>
      <point x="452" y="150" type="curve"/>
      <point x="642" y="1006" type="line" smooth="yes"/>
      <point x="688" y="1206"/>
      <point x="824" y="1286"/>
      <point x="936" y="1286" type="curve" smooth="yes"/>
      <point x="978" y="1286"/>
      <point x="1030" y="1280"/>
      <point x="1106" y="1248" type="curve"/>
      <point x="1176" y="1370" type="line"/>
      <point x="1092" y="1410"/>
      <point x="1012" y="1422"/>
      <point x="946" y="1422" type="curve" smooth="yes"/>
      <point x="702" y="1422"/>
      <point x="522" y="1250"/>
      <point x="464" y="986" type="curve" smooth="yes"/>
      <point x="452" y="930" type="line"/>
      <point x="270" y="888" type="line"/>
      <point x="258" y="792" type="line"/>
      <point x="420" y="792" type="line"/>
      <point x="272" y="130" type="line"/>
      <point x="228" y="-70"/>
      <point x="114" y="-126"/>
      <point x="-16" y="-168" type="curve"/>
    </contour>
    <contour>
      <point x="666" y="792" type="curve"/>
      <point x="970" y="792" type="line"/>
      <point x="988" y="930" type="line" name="hr00"/>
      <point x="868" y="930" type="line"/>
      <point x="772" y="930"/>
      <point x="712" y="868"/>
    </contour>
  </outline>
</glyph>
<glyph name="gravecomb" format="2">
  <unicode hex="0300"/>
  <anchor x="422" y="1034" name="_top"/>
  <anchor x="478" y="1480" name="top"/>
  <outline>
    <contour>
      <point x="536" y="1204" type="curve"/>
      <point x="392" y="1480" type="line"/>
      <point x="198" y="1480" type="line"/>
      <point x="346" y="1262" type="line" smooth="yes" name="hr00"/>
      <point x="392" y="1198"/>
      <point x="466" y="1186"/>
    </contour>
  </outline>
</glyph>
<glyph name="dotaccentcomb" format="2">
  <unicode hex="0307"/>
  <anchor x="264" y="1034" name="_top"/>
  <anchor x="316" y="1456" name="top"/>
  <outline>
    <contour>
      <point x="286" y="1214" type="curve" smooth="yes"/>
      <point x="356" y="1214"/>
      <point x="412" y="1266"/>
      <point x="420" y="1334" type="curve" smooth="yes"/>
      <point x="430" y="1404"/>
      <point x="386" y="1456"/>
      <point x="316" y="1456" type="curve" smooth="yes"/>
      <point x="248" y="1456"/>
      <point x="190" y="1404"/>
      <point x="180" y="1334" type="curve" smooth="yes"/>
      <point x="172" y="1266"/>
      <point x="218" y="1214"/>
    </contour>
  </outline>
</glyph>
<glyph name="ringcomb" format="2">
  <unicode hex="030A"/>
  <anchor x="340" y="1034" name="_top"/>
  <anchor x="396" y="1494" name="top"/>
  <outline>
    <contour>
      <point x="354" y="1142" type="curve" smooth="yes"/>
      <point x="466" y="1142"/>
      <point x="558" y="1214"/>
      <point x="570" y="1316" type="curve" smooth="yes"/>
      <point x="584" y="1420"/>
      <point x="516" y="1494"/>
      <point x="398" y="1494" type="curve" smooth="yes"/>
      <point x="282" y="1494"/>
      <point x="192" y="1418"/>
      <point x="178" y="1314" type="curve" smooth="yes"/>
      <point x="166" y="1216"/>
      <point x="238" y="1142"/>
    </contour>
    <contour>
      <point x="362" y="1216" type="curve" smooth="yes"/>
      <point x="304" y="1216"/>
      <point x="272" y="1264"/>
      <point x="278" y="1314" type="curve" smooth="yes"/>
      <point x="286" y="1376"/>
      <point x="332" y="1420"/>
      <point x="388" y="1420" type="curve" smooth="yes"/>
      <point x="450" y="1420"/>
      <point x="482" y="1376"/>
      <point x="474" y="1318" type="curve" smooth="yes"/>
      <point x="468" y="1260"/>
      <point x="424" y="1216"/>
    </contour>
  </outline>
</glyph>
<glyph name="cedillacomb" format="2">
  <unicode hex="0327"/>
  <anchor x="204" y="0" name="_bottom"/>
  <anchor x="152" y="-412" name="bottom"/>
  <outline>
    <contour>
      <point x="122" y="-412" type="curve" smooth="yes"/>
      <point x="230" y="-412"/>
      <point x="356" y="-366"/>
      <point x="370" y="-246" type="curve" smooth="yes"/>
      <point x="380" y="-164"/>
      <point x="304" y="-108"/>
      <point x="228" y="-100" type="curve"/>
      <point x="268" y="4" type="line" name="hr00"/>
      <point x="172" y="-4" type="line"/>
      <point x="108" y="-168" type="line"/>
      <point x="202" y="-178"/>
      <point x="254" y="-202"/>
      <point x="248" y="-252" type="curve" smooth="yes"/>
      <point x="242" y="-300"/>
      <point x="180" y="-314"/>
      <point x="134" y="-314" type="curve" smooth="yes"/>
      <point x="94" y="-314"/>
      <point x="56" y="-308"/>
      <point x="8" y="-288" type="curve"/>
      <point x="-30" y="-374" type="line"/>
      <point x="30" y="-402"/>
      <point x="76" y="-412"/>
    </contour>
  </outline>
</glyph>
<glyph name="dagger" format="2">
  <advance width="1134"/>
  <unicode hex="2020"/>
  <outline>
    <contour>
      <point x="466" y="-60" type="line"/>
      <point x="614" y="-60" type="line" name="hr00"/>
      <point x="792" y="1394" type="line"/>
      <point x="644" y="1394" type="line"/>
    </contour>
    <contour>
      <point x="142" y="814" type="line"/>
      <point x="332" y="814" type="line"/>
      <point x="428" y="814"/>
      <point x="482" y="876"/>
      <point x="520" y="952" type="curve"/>
      <point x="160" y="952" type="line"/>
    </contour>
    <contour>
      <point x="960" y="814" type="curve"/>
      <point x="1150" y="814" type="line"/>
      <point x="1168" y="952" type="line"/>
      <point x="808" y="952" type="line"/>
      <point x="826" y="876"/>
      <point x="864" y="814"/>
    </contour>
  </outline>
</glyph>
<glyph name="perthousand" format="2">
  <advance width="2228"/>
  <unicode hex="2030"/>
  <outline>
    <contour>
      <point x="112" y="0" type="line"/>
      <point x="272" y="0" type="line"/>
      <point x="1566" y="1404" type="line"/>
      <point x="1406" y="1404" type="line"/>
    </contour>
    <contour>
      <point x="1110" y="-26" type="curve" smooth="yes" name="hr01"/>
      <point x="1280" y="-26"/>
      <point x="1416" y="108"/>
      <point x="1444" y="340" type="curve" smooth="yes"/>
      <point x="1472" y="570"/>
      <point x="1370" y="704"/>
      <point x="1200" y="704" type="curve" smooth="yes"/>
      <point x="1032" y="704"/>
      <point x="896" y="570"/>
      <point x="868" y="340" type="curve" smooth="yes"/>
      <point x="840" y="106"/>
      <point x="942" y="-26"/>
    </contour>
    <contour>
      <point x="1122" y="80" type="curve" smooth="yes"/>
      <point x="1040" y="80"/>
      <point x="1000" y="164"/>
      <point x="1020" y="340" type="curve" smooth="yes"/>
      <point x="1042" y="512"/>
      <point x="1104" y="598"/>
      <point x="1186" y="598" type="curve" smooth="yes"/>
      <point x="1272" y="598"/>
      <point x="1314" y="512"/>
      <point x="1292" y="340" type="curve" smooth="yes"/>
      <point x="1272" y="164"/>
      <point x="1208" y="80"/>
    </contour>
    <contour>
      <point x="462" y="702" type="curve" smooth="yes"/>
      <point x="630" y="702"/>
      <point x="766" y="836"/>
      <point x="794" y="1068" type="curve"/>
      <point x="822" y="1300"/>
      <point x="720" y="1434"/>
      <point x="552" y="1434" type="curve"/>
      <point x="382" y="1434"/>
      <point x="246" y="1300"/>
      <point x="218" y="1068" type="curve"/>
      <point x="190" y="834"/>
      <point x="292" y="702"/>
    </contour>
    <contour>
      <point x="474" y="810" type="curve" smooth="yes"/>
      <point x="390" y="810"/>
      <point x="348" y="892"/>
      <point x="370" y="1068" type="curve"/>
      <point x="392" y="1242"/>
      <point x="454" y="1326"/>
      <point x="538" y="1326" type="curve"/>
      <point x="624" y="1326"/>
      <point x="664" y="1242"/>
      <point x="642" y="1068" type="curve"/>
      <point x="620" y="892"/>
      <point x="560" y="810"/>
    </contour>
    <contour>
      <point x="1798" y="-26" type="curve" smooth="yes"/>
      <point x="1968" y="-26"/>
      <point x="2104" y="108"/>
      <point x="2132" y="340" type="curve" smooth="yes"/>
      <point x="2160" y="570"/>
      <point x="2058" y="704"/>
      <point x="1888" y="704" type="curve" smooth="yes"/>
      <point x="1720" y="704"/>
      <point x="1584" y="570"/>
      <point x="1556" y="340" type="curve" smooth="yes"/>
      <point x="1528" y="106"/>
      <point x="1630" y="-26"/>
    </contour>
    <contour>
      <point x="1810" y="80" type="curve" smooth="yes"/>
      <point x="1728" y="80"/>
      <point x="1688" y="164"/>
      <point x="1708" y="340" type="curve" smooth="yes"/>
      <point x="1730" y="512"/>
      <point x="1792" y="598"/>
      <point x="1874" y="598" type="curve" smooth="yes"/>
      <point x="1960" y="598"/>
      <point x="2002" y="512"/>
      <point x="1980" y="340" type="curve" smooth="yes"/>
      <point x="1960" y="164"/>
      <point x="1896" y="80"/>
    </contour>
  </outline>
</glyph>
<glyph name="guilsinglleft" format="2">
  <advance width="1226"/>
  <unicode hex="2039"/>
  <outline>
    <contour>
      <point x="838" y="100" type="line"/>
      <point x="936" y="186" type="line"/>
      <point x="688" y="516" type="line"/>
      <point x="1016" y="846" type="line"/>
      <point x="940" y="932" type="line"/>
      <point x="456" y="516" type="line" name="hr00"/>
    </contour>
  </outline>
</glyph>
<glyph name="acutecomb.case" format="2">
  <anchor x="294" y="1454" name="_top"/>
  <anchor x="334" y="1780" name="top"/>
  <outline>
    <contour>
      <point x="204" y="1532" type="line"/>
      <point x="270" y="1516"/>
      <point x="344" y="1526"/>
      <point x="406" y="1584" type="curve"/>
      <point x="606" y="1780" type="line"/>
      <point x="412" y="1780" type="line"/>
    </contour>
  </outline>
</glyph>
<glyph name="circumflexcomb.case" format="2">
  <anchor x="464" y="1454" name="_top"/>
  <anchor x="498" y="1780" name="top"/>
  <outline>
    <contour>
      <point x="302" y="1522" type="line"/>
      <point x="492" y="1642" type="line"/>
      <point x="654" y="1524" type="line"/>
      <point x="760" y="1540" type="line"/>
      <point x="568" y="1780" type="line"/>
      <point x="454" y="1780" type="line"/>
      <point x="206" y="1540" type="line"/>
    </contour>
  </outline>
</glyph>
